<?xml version="1.0" encoding="UTF-8"?>
<svg version="1.1" xmlns="http://www.w3.org/2000/svg" width="381" height="492">
<path d="M0 0 C3.11140622 0.64373922 5.74422854 1.44055843 8.625 2.75 C9.1509375 2.0075 9.1509375 2.0075 9.6875 1.25 C12.6265795 -1.02541639 15.01926955 -0.57194022 18.625 -0.25 C19.615 0.41 20.605 1.07 21.625 1.75 C24.41355122 1.35428244 24.41355122 1.35428244 26.625 -0.25 C29.6242887 -0.59991701 31.72026811 -0.81008063 34.625 -0.25 C38.43586218 3.05274723 39.71417163 5.70336058 41.0625 10.5 C42.10350761 14.1639266 42.10350761 14.1639266 45.3125 16.25 C46.405625 16.415 47.49875 16.58 48.625 16.75 C49.883125 17.018125 51.14125 17.28625 52.4375 17.5625 C59.63769573 18.29610485 65.73797041 14.71614797 72.0625 11.6875 C83.67351065 6.29859344 93.54790841 5.63691805 105.87109375 9.86328125 C109.65509829 11.42026656 113.34636882 13.09163196 116.984375 14.96484375 C124.12883181 18.52440468 130.32532783 18.21067916 138.125 17.375 C141.72134723 15.0373743 141.9838782 12.28309934 142.97265625 8.234375 C143.83186268 4.96218764 145.21744067 2.15755933 147.625 -0.25 C154.01373239 -0.72323944 154.01373239 -0.72323944 156.5625 1.25 C156.913125 1.745 157.26375 2.24 157.625 2.75 C160.3155528 1.52992056 160.3155528 1.52992056 162.625 -0.25 C165.29558851 -0.39115161 167.94932238 -0.29247107 170.625 -0.25 C171.615 1.73 171.615 1.73 172.625 3.75 C174.1409375 2.7290625 174.1409375 2.7290625 175.6875 1.6875 C178.66672039 -0.00455215 179.76827038 -0.25238784 183.375 -0.3125 C186.625 0.75 186.625 0.75 188.25390625 2.76171875 C190.06902917 6.71775588 190.45377585 10.31535656 190.8125 14.625 C190.93202026 15.99108398 190.93202026 15.99108398 191.05395508 17.38476562 C192.03082916 30.06838952 191.85289578 42.78227723 191.65820312 55.49169922 C191.62314839 57.87593697 191.59448471 60.26020168 191.56640625 62.64453125 C191.51439788 66.85626855 191.4434706 71.06734629 191.35952759 75.27856445 C191.32843749 76.91243885 191.30164998 78.54640139 191.27938843 80.18041992 C191.24600416 82.47499058 191.19376921 84.76841079 191.13671875 87.0625 C191.11053467 88.37863281 191.08435059 89.69476563 191.05737305 91.05078125 C190.56314805 95.27918165 189.57078948 97.9854565 187.625 101.75 C183.77156861 103.6767157 178.92812457 103.03958324 174.8125 102.125 C172.34049154 101.44328085 172.34049154 101.44328085 169.625 103.75 C166.12810808 104.06083484 163.81863939 103.81971018 160.5 102.625 C157.01204592 101.56344876 156.70168726 102.1650399 153.625 103.75 C147.47804024 103.4264758 147.47804024 103.4264758 145.05859375 101.5078125 C143.34278156 99.40395559 142.35944019 97.28826418 141.25 94.8125 C138.88659457 89.9945192 136.87511242 87.00768098 131.70703125 85.0078125 C128.43879207 84.01446401 126.42590009 83.55613614 123.04296875 84.375 C119.86998045 86.17934876 119.26870401 87.75497522 117.9375 91.125 C117.54175781 92.08148438 117.14601562 93.03796875 116.73828125 94.0234375 C113.74896121 104.02979299 113.31504251 114.05746745 113.16140747 124.42254639 C113.09668115 128.6714794 112.99972223 132.9196766 112.90234375 137.16796875 C112.88231796 138.05353455 112.86229218 138.93910034 112.84165955 139.85150146 C112.64540562 147.95951047 112.24337499 156.05079147 111.81710815 164.14935303 C110.49198109 189.46062159 109.95599462 214.79352958 109.38144302 240.13066006 C108.06209069 298.27851597 108.06209069 298.27851597 100.96484375 307.83984375 C97.7020858 312.49141413 98.31800424 318.03199819 98.1015625 323.5 C97.625 326.75 97.625 326.75 96.359375 328.63671875 C93.08736389 330.73699615 89.4359332 330.77005754 85.625 330.75 C81.38970588 329.51470588 81.38970588 329.51470588 79.625 327.75 C79.60588404 326.06142357 79.589573 324.37276582 79.58789062 322.68408203 C79.4821625 313.84968357 77.45683928 308.45082582 72.4375 301.2265625 C67.77223316 292.27809809 69.43858456 280.24283492 69.37548828 270.3293457 C69.36093466 268.57882836 69.34593841 266.82831465 69.33053589 265.07780457 C69.29818596 261.32385522 69.26843152 257.56989756 69.24057388 253.81591225 C69.19589061 247.8670525 69.14215317 241.91829551 69.0866394 235.9695282 C68.9299048 219.05863254 68.77994893 202.1477036 68.65087891 185.23657227 C68.57942582 175.88445454 68.49768051 166.53248474 68.40466106 157.180556 C68.35599533 152.24224777 68.31258016 147.30402048 68.28201675 142.36556435 C68.25323083 137.71551844 68.21095803 133.06578223 68.15883255 128.41594124 C68.14217785 126.72102726 68.130311 125.02605747 68.123909 123.33107376 C68.08658025 103.10339034 68.08658025 103.10339034 60.625 84.75 C57.63417368 82.87203929 55.88923108 82.54674023 52.4140625 83.10546875 C47.04276237 84.57766895 43.45919935 86.84788482 40.625 91.75 C39.50726202 94.10662938 38.47487992 96.46753909 37.51953125 98.89453125 C36.625 100.75 36.625 100.75 34.625 101.75 C30.97399766 101.95666051 28.28294124 102.01915778 24.875 100.625 C24.1325 100.33625 23.39 100.0475 22.625 99.75 C21.635 100.41 20.645 101.07 19.625 101.75 C13.30241935 102.2016129 13.30241935 102.2016129 9.625 99.75 C7.23111077 100.02802838 7.23111077 100.02802838 4.625 100.75 C1.06402166 101.64024458 -0.69305802 102.02897626 -4.125 100.625 C-7.87378461 97.50101283 -8.4488381 93.93002841 -8.97265625 89.2421875 C-9.13937956 87.37080343 -9.29335519 85.49825847 -9.4375 83.625 C-9.51838867 82.59310547 -9.59927734 81.56121094 -9.68261719 80.49804688 C-11.11228367 60.8042475 -12.21000028 40.83413387 -10.625 21.125 C-10.55120117 20.19107422 -10.47740234 19.25714844 -10.40136719 18.29492188 C-9.84310559 12.62867123 -8.95882488 6.88559583 -6.375 1.75 C-3.375 -0.25 -3.375 -0.25 0 0 Z " fill="#212121" transform="translate(101.375,84.25)"/>
<path d="M0 0 C1.28156902 3.41751739 0.72889776 6.29339515 0.25363159 9.83920288 C-0.12739948 13.08537121 -0.18485982 16.31560305 -0.24609375 19.58203125 C-0.27776482 21.06038731 -0.30959206 22.53874002 -0.34155273 24.01708984 C-0.35693085 24.79381042 -0.37230896 25.57053101 -0.38815308 26.37078857 C-0.65810377 39.72808939 -1.11183898 53.06191571 -1.80889893 66.40338135 C-3.12583539 91.71393768 -3.66902904 117.04457291 -4.24355698 142.38066006 C-5.56290931 200.52851597 -5.56290931 200.52851597 -12.66015625 210.08984375 C-15.9229142 214.74141413 -15.30699576 220.28199819 -15.5234375 225.75 C-16 229 -16 229 -17.265625 230.88671875 C-20.53763611 232.98699615 -24.1890668 233.02005754 -28 233 C-32.23529412 231.76470588 -32.23529412 231.76470588 -34 230 C-34.01911596 228.31142357 -34.035427 226.62276582 -34.03710938 224.93408203 C-34.1428375 216.09968357 -36.16816072 210.70082582 -41.1875 203.4765625 C-46.13126125 193.99391699 -44.22324275 180.49541081 -44.31640625 170.01171875 C-44.3374311 168.01554518 -44.35879624 166.01937516 -44.38047791 164.02320862 C-44.4485278 157.57803393 -44.50675623 151.13279166 -44.5625 144.6875 C-44.57195648 143.59443039 -44.58141296 142.50136078 -44.59115601 141.37516785 C-44.67716715 131.34500555 -44.76043879 121.31482344 -44.83596802 111.28457642 C-44.92039094 100.26569441 -45.02674413 89.24798859 -45.19613171 78.23006535 C-45.29510195 71.77421239 -45.37249228 65.31840664 -45.43025684 58.86205196 C-45.46382809 55.22535833 -45.50930141 51.58977581 -45.58547974 47.95370483 C-46.20246711 17.76844026 -46.20246711 17.76844026 -34.25 4.6875 C-30.08370295 0.82296745 -25.97841793 0.63491749 -20.4921875 0.73828125 C-16.60348693 1.14665576 -14.85788931 2.33263664 -12 5 C-8.24229682 9.71103168 -5.07407492 14.31662803 -3 20 C-2.94465088 19.42967041 -2.88930176 18.85934082 -2.83227539 18.27172852 C-2.58026257 15.70151247 -2.32147272 13.13202369 -2.0625 10.5625 C-1.97548828 9.66466797 -1.88847656 8.76683594 -1.79882812 7.84179688 C-1.71181641 6.98779297 -1.62480469 6.13378906 -1.53515625 5.25390625 C-1.456604 4.46314697 -1.37805176 3.6723877 -1.29711914 2.85766602 C-1 1 -1 1 0 0 Z " fill="#242424" transform="translate(215,182)"/>
<path d="M0 0 C3.11140622 0.64373922 5.74422854 1.44055843 8.625 2.75 C9.1509375 2.0075 9.1509375 2.0075 9.6875 1.25 C12.6265795 -1.02541639 15.01926955 -0.57194022 18.625 -0.25 C19.615 0.41 20.605 1.07 21.625 1.75 C24.41355122 1.35428244 24.41355122 1.35428244 26.625 -0.25 C29.6242887 -0.59991701 31.72026811 -0.81008063 34.625 -0.25 C38.43586218 3.05274723 39.71417163 5.70336058 41.0625 10.5 C42.10544793 14.18809565 42.10544793 14.18809565 45.375 16.25 C47.72500036 16.61153852 50.08003897 16.94082478 52.4375 17.25 C54.0153125 17.4975 54.0153125 17.4975 55.625 17.75 C56.90091072 20.30182144 56.33364881 21.04677219 55.625 23.75 C55.53581651 25.35650309 55.49713399 26.96621939 55.49560547 28.57519531 C55.49087723 30.0075351 55.49087723 30.0075351 55.48605347 31.46881104 C55.4880777 32.49488464 55.49010193 33.52095825 55.4921875 34.578125 C55.49075241 36.17258453 55.49075241 36.17258453 55.48928833 37.79925537 C55.48860799 40.04862528 55.49045211 42.29799715 55.49462891 44.54736328 C55.49995804 47.97302729 55.49468988 51.39855893 55.48828125 54.82421875 C55.48894247 57.01302112 55.49022454 59.20182341 55.4921875 61.390625 C55.48915115 62.91759003 55.48915115 62.91759003 55.48605347 64.47540283 C55.50403445 69.9943591 55.80902702 75.29019271 56.625 80.75 C58.605 81.41 60.585 82.07 62.625 82.75 C61.965 83.41 61.305 84.07 60.625 84.75 C59.820625 84.358125 59.01625 83.96625 58.1875 83.5625 C53.29652286 82.44701399 50.02541021 83.452008 45.625 85.75 C41.48898546 89.61028024 39.57860979 93.66359555 37.51953125 98.89453125 C36.625 100.75 36.625 100.75 34.625 101.75 C30.97399766 101.95666051 28.28294124 102.01915778 24.875 100.625 C24.1325 100.33625 23.39 100.0475 22.625 99.75 C21.635 100.41 20.645 101.07 19.625 101.75 C13.30241935 102.2016129 13.30241935 102.2016129 9.625 99.75 C7.23111077 100.02802838 7.23111077 100.02802838 4.625 100.75 C1.06402166 101.64024458 -0.69305802 102.02897626 -4.125 100.625 C-7.87378461 97.50101283 -8.4488381 93.93002841 -8.97265625 89.2421875 C-9.13937956 87.37080343 -9.29335519 85.49825847 -9.4375 83.625 C-9.51838867 82.59310547 -9.59927734 81.56121094 -9.68261719 80.49804688 C-11.11228367 60.8042475 -12.21000028 40.83413387 -10.625 21.125 C-10.55120117 20.19107422 -10.47740234 19.25714844 -10.40136719 18.29492188 C-9.84310559 12.62867123 -8.95882488 6.88559583 -6.375 1.75 C-3.375 -0.25 -3.375 -0.25 0 0 Z " fill="#FCB8C8" transform="translate(101.375,84.25)"/>
<path d="M0 0 C3.625 0.25 3.625 0.25 5.5625 1.75 C5.913125 2.245 6.26375 2.74 6.625 3.25 C9.3155528 2.02992056 9.3155528 2.02992056 11.625 0.25 C14.29558851 0.10884839 16.94932238 0.20752893 19.625 0.25 C20.285 1.57 20.945 2.89 21.625 4.25 C22.635625 3.569375 23.64625 2.88875 24.6875 2.1875 C27.66672039 0.49544785 28.76827038 0.24761216 32.375 0.1875 C35.625 1.25 35.625 1.25 37.25390625 3.26171875 C39.06902917 7.21775588 39.45377585 10.81535656 39.8125 15.125 C39.93202026 16.49108398 39.93202026 16.49108398 40.05395508 17.88476562 C41.03082916 30.56838952 40.85289578 43.28227723 40.65820312 55.99169922 C40.62314839 58.37593697 40.59448471 60.76020168 40.56640625 63.14453125 C40.51439788 67.35626855 40.4434706 71.56734629 40.35952759 75.77856445 C40.32843749 77.41243885 40.30164998 79.04640139 40.27938843 80.68041992 C40.24600416 82.97499058 40.19376921 85.26841079 40.13671875 87.5625 C40.11053467 88.87863281 40.08435059 90.19476563 40.05737305 91.55078125 C39.56314805 95.77918165 38.57078948 98.4854565 36.625 102.25 C32.77156861 104.1767157 27.92812457 103.53958324 23.8125 102.625 C21.34049154 101.94328085 21.34049154 101.94328085 18.625 104.25 C15.12810808 104.56083484 12.81863939 104.31971018 9.5 103.125 C6.01204592 102.06344876 5.70168726 102.6650399 2.625 104.25 C-3.52195976 103.9264758 -3.52195976 103.9264758 -5.94140625 102.0078125 C-7.65721844 99.90395559 -8.64055981 97.78826418 -9.75 95.3125 C-12.60470567 89.48449554 -15.46832719 86.87537772 -21.54296875 84.65234375 C-22.26121826 84.38800537 -22.97946777 84.12366699 -23.71948242 83.85131836 C-24.26580322 83.6528833 -24.81212402 83.45444824 -25.375 83.25 C-25.34470703 82.50878906 -25.31441406 81.76757812 -25.28320312 81.00390625 C-24.6797576 65.83421403 -24.26910355 50.68210852 -24.25 35.5 C-24.24750244 34.79633301 -24.24500488 34.09266602 -24.24243164 33.36767578 C-24.23659242 31.37533408 -24.23918999 29.38297301 -24.2421875 27.390625 C-24.24331543 26.25141602 -24.24444336 25.11220703 -24.24560547 23.93847656 C-24.19229683 21.27899123 -24.19229683 21.27899123 -25.375 19.25 C-24.12783203 19.05083984 -24.12783203 19.05083984 -22.85546875 18.84765625 C-21.76878906 18.67105469 -20.68210938 18.49445313 -19.5625 18.3125 C-18.48355469 18.13847656 -17.40460938 17.96445313 -16.29296875 17.78515625 C-13.32566644 17.31128079 -13.32566644 17.31128079 -10.375 16.25 C-9.45415053 14.08703526 -9.45415053 14.08703526 -8.875 11.5 C-5.86724031 0.43461039 -5.86724031 0.43461039 0 0 Z " fill="#FCB4C5" transform="translate(252.375,83.75)"/>
<path d="M0 0 C9.10614805 -0.87186524 15.57153831 1.3520871 22.6262207 7.16333008 C25.6219584 10.74324125 25.5370404 12.36537197 25.3046875 16.96875 C25.27778839 17.6443396 25.25088928 18.3199292 25.22317505 19.01599121 C25.13133883 21.17924444 25.00393312 23.33867373 24.875 25.5 C24.81012892 26.88921422 24.74761164 28.27854045 24.6875 29.66796875 C24.45305816 34.87472668 24.16768603 40.07854365 23.86901855 45.28198242 C22.8378633 63.4261101 22.68445013 81.58156478 22.47393799 99.74920654 C22.42286389 104.15003204 22.36814845 108.55077945 22.30812073 112.95149231 C22.28180534 114.98826734 22.26087481 117.02505165 22.2401123 119.06188965 C22.22339478 120.29507935 22.20667725 121.52826904 22.18945312 122.79882812 C22.17066101 124.41924011 22.17066101 124.41924011 22.15148926 126.0723877 C22.00915788 128.82301902 21.56210471 131.31067123 21 134 C20.92195386 135.36382173 20.88470562 136.7306365 20.88989258 138.09667969 C20.88931351 138.86808289 20.88873444 139.63948608 20.88813782 140.43426514 C20.89024765 141.25517639 20.89235748 142.07608765 20.89453125 142.921875 C20.88107245 144.6875122 20.8660488 146.45313804 20.84960938 148.21875 C20.8268312 150.98152231 20.8124684 153.743006 20.82495117 156.50585938 C20.8872701 175.32954306 20.8872701 175.32954306 14 183 C11.85156915 186.8199354 11.31691899 190.46016115 10.66015625 194.7578125 C10 197 10 197 7 199 C4.58984375 199.44921875 4.58984375 199.44921875 1.9375 199.6875 C1.05964844 199.77386719 0.18179688 199.86023438 -0.72265625 199.94921875 C-3 200 -3 200 -5 199 C-5 195.04 -5 191.08 -5 187 C-4.67 187 -4.34 187 -4 187 C-4 188.65 -4 190.3 -4 192 C-2.02 192 -0.04 192 2 192 C1.67 179.46 1.34 166.92 1 154 C2.32 154 3.64 154 5 154 C5 153.01 5 152.02 5 151 C4.34 151 3.68 151 3 151 C3 148.36 3 145.72 3 143 C3.33 143 3.66 143 4 143 C4.02696365 141.20841511 4.04637917 139.41671527 4.0625 137.625 C4.07410156 136.62726563 4.08570313 135.62953125 4.09765625 134.6015625 C4.18006602 132.01567547 4.18006602 132.01567547 3 130 C3.66 130 4.32 130 5 130 C5.06531098 126.66914012 5.12181556 123.58200765 4.4375 120.3125 C3.95800061 117.77800321 4.38472067 116.46111732 5 114 C4.61432869 111.31850007 4.61432869 111.31850007 4 109 C2.68 108.67 1.36 108.34 0 108 C-0.495 108.99 -0.495 108.99 -1 110 C-1 109.01 -1 108.02 -1 107 C0.65 107 2.3 107 4 107 C4.33 105.68 4.66 104.36 5 103 C3.35 103 1.7 103 0 103 C-0.495 103.99 -0.495 103.99 -1 105 C-1 104.01 -1 103.02 -1 102 C1.475 101.505 1.475 101.505 4 101 C4.33 98.69 4.66 96.38 5 94 C3.35 94 1.7 94 0 94 C-0.495 94.99 -0.495 94.99 -1 96 C-1 95.01 -1 94.02 -1 93 C0.98 93 2.96 93 5 93 C5.72256829 88.51866426 5.72256829 88.51866426 6 84 C5.34 84 4.68 84 4 84 C4 82.68 4 81.36 4 80 C3.01 79.67 2.02 79.34 1 79 C1.495 78.01 1.495 78.01 2 77 C2.66 77.33 3.32 77.66 4 78 C3.96519531 77.06027344 3.96519531 77.06027344 3.9296875 76.1015625 C3.91164062 75.28429687 3.89359375 74.46703125 3.875 73.625 C3.84019531 72.40683594 3.84019531 72.40683594 3.8046875 71.1640625 C4 69 4 69 6 67 C5.67 66.484375 5.34 65.96875 5 65.4375 C3.67989123 62.21973488 3.86757895 59.4429472 4 56 C2.35 55.67 0.7 55.34 -1 55 C-1 54.67 -1 54.34 -1 54 C-0.030625 53.7525 0.93875 53.505 1.9375 53.25 C2.948125 52.8375 3.95875 52.425 5 52 C5.9049261 50.0480428 5.9049261 50.0480428 6 48 C6.33 47.34 6.66 46.68 7 46 C5.68 45.34 4.36 44.68 3 44 C3.99 43.505 3.99 43.505 5 43 C5 41.68 5 40.36 5 39 C3.02 38.67 1.04 38.34 -1 38 C-1 37.67 -1 37.34 -1 37 C0.98 37 2.96 37 5 37 C4.01 34.36 3.02 31.72 2 29 C2.99 28.34 3.98 27.68 5 27 C6.04452989 24.1512821 6 22.12305119 6 19 C4.08333079 16.74934898 4.08333079 16.74934898 2 15 C2.350625 14.071875 2.70125 13.14375 3.0625 12.1875 C4.32382628 9.0197047 4.32382628 9.0197047 3 6 C3.495 5.54625 3.99 5.0925 4.5 4.625 C6.22609337 3.12364481 6.22609337 3.12364481 6 1 C4.02 1 2.04 1 0 1 C0 0.67 0 0.34 0 0 Z " fill="#232323" transform="translate(187,211)"/>
<path d="M0 0 C0.66 0.33 1.32 0.66 2 1 C2.2475 1.969375 2.495 2.93875 2.75 3.9375 C3.69299634 7.21958681 3.69299634 7.21958681 6.6875 8.3125 C10.06842425 9.05691334 10.06842425 9.05691334 13.8125 9.5 C14.864375 9.665 15.91625 9.83 17 10 C18.27591072 12.55182144 17.70864881 13.29677219 17 16 C16.91081651 17.60650309 16.87213399 19.21621939 16.87060547 20.82519531 C16.86745331 21.7800885 16.86430115 22.73498169 16.86105347 23.71881104 C16.8630777 24.74488464 16.86510193 25.77095825 16.8671875 26.828125 C16.86623077 27.89109802 16.86527405 28.95407104 16.86428833 30.04925537 C16.86360799 32.29862528 16.86545211 34.54799715 16.86962891 36.79736328 C16.87495804 40.22302729 16.86968988 43.64855893 16.86328125 47.07421875 C16.86394247 49.26302112 16.86522454 51.45182341 16.8671875 53.640625 C16.86516327 54.65860168 16.86313904 55.67657837 16.86105347 56.72540283 C16.87903445 62.2443591 17.18402702 67.54019271 18 73 C19.98 73.66 21.96 74.32 24 75 C23.01 75.99 23.01 75.99 22 77 C21.195625 76.608125 20.39125 76.21625 19.5625 75.8125 C14.67799098 74.69848917 11.39201094 75.69439721 7 78 C2.93897727 81.88445652 0.95871029 85.84549924 -1 91 C-1.99 91 -2.98 91 -4 91 C-9.00799224 82.49348685 -7.14871545 69.48373909 -7.1328125 59.921875 C-7.13376923 58.62985168 -7.13472595 57.33782837 -7.13571167 56.00665283 C-7.13717079 53.29739153 -7.13509102 50.58816361 -7.13037109 47.87890625 C-7.12465185 44.43081405 -7.12797805 40.98279935 -7.13394356 37.53470993 C-7.13844985 34.2054256 -7.13528512 30.87616152 -7.1328125 27.546875 C-7.13483673 26.32168152 -7.13686096 25.09648804 -7.13894653 23.83416748 C-7.10442043 11.14378527 -7.10442043 11.14378527 -6 5 C-5.01 4.34 -4.02 3.68 -3 3 C-2.34 3.33 -1.68 3.66 -1 4 C-0.67 2.68 -0.34 1.36 0 0 Z " fill="#F9A2B6" transform="translate(140,92)"/>
<path d="M0 0 C1.28156902 3.41751739 0.72889776 6.29339515 0.25363159 9.83920288 C-0.12739948 13.08537121 -0.18485982 16.31560305 -0.24609375 19.58203125 C-0.27776482 21.06038731 -0.30959206 22.53874002 -0.34155273 24.01708984 C-0.35693085 24.79381042 -0.37230896 25.57053101 -0.38815308 26.37078857 C-0.65810377 39.72808939 -1.11183898 53.06191571 -1.80889893 66.40338135 C-3.12583609 91.71395111 -3.66899522 117.0445961 -4.24356174 142.38069534 C-4.95988834 173.95350485 -4.95988834 173.95350485 -5.49609375 184.91015625 C-5.54963768 186.01936684 -5.54963768 186.01936684 -5.60426331 187.15098572 C-5.8593951 191.80531208 -6.38101737 196.3832734 -7 201 C-7.33 201 -7.66 201 -8 201 C-8.02476651 195.67977231 -8.04289156 190.35957838 -8.05493164 185.03930664 C-8.05995238 183.23038142 -8.06677029 181.42146024 -8.07543945 179.61254883 C-8.08760402 177.00861614 -8.09325098 174.40473723 -8.09765625 171.80078125 C-8.10539818 170.59268547 -8.10539818 170.59268547 -8.11329651 169.36018372 C-8.11337204 168.5997728 -8.11344757 167.83936188 -8.11352539 167.0559082 C-8.115746 166.39194534 -8.11796661 165.72798248 -8.12025452 165.04389954 C-8 163 -8 163 -7.50375366 160.61225891 C-6.94975375 157.73944364 -6.85385909 155.07324391 -6.82641602 152.14794922 C-6.81285065 150.98430847 -6.79928528 149.82066772 -6.78530884 148.62176514 C-6.77494598 147.36212952 -6.76458313 146.1024939 -6.75390625 144.8046875 C-6.73897517 143.47079821 -6.7234491 142.13691546 -6.70736694 140.80303955 C-6.67349531 137.96654951 -6.64159042 135.13004857 -6.61129761 132.29351807 C-6.35134732 108.34317748 -5.83064633 84.44510942 -4.52774048 60.52493286 C-4.33892653 57.0171474 -4.16590437 53.50895483 -4 50 C-3.91794312 48.30085449 -3.91794312 48.30085449 -3.83422852 46.56738281 C-3.7925354 45.09156738 -3.7925354 45.09156738 -3.75 43.5859375 C-3.70939453 42.36076416 -3.70939453 42.36076416 -3.66796875 41.11083984 C-4.09240711 38.4125354 -5.10076516 37.35356168 -7.0625 35.5 C-8.99393346 34.13163281 -8.99393346 34.13163281 -11 33 C-12.051875 32.38125 -13.10375 31.7625 -14.1875 31.125 C-21.35740446 29.00929049 -28.27800615 28.6560627 -35 32.25 C-38.09745847 34.15071315 -40.63590944 36.23222719 -43 39 C-43.61094121 41.52987166 -43.61094121 41.52987166 -43.54589844 44.31933594 C-43.56561707 45.38013367 -43.58533569 46.4409314 -43.60565186 47.53387451 C-43.60688049 48.67253967 -43.60810913 49.81120483 -43.609375 50.984375 C-43.62591125 52.15510559 -43.64244751 53.32583618 -43.65948486 54.53204346 C-43.70807081 58.27141511 -43.72936033 62.01037976 -43.75 65.75 C-43.77815066 68.28517684 -43.80807679 70.82033464 -43.83984375 73.35546875 C-43.91383281 79.57023835 -43.96541324 85.78489299 -44 92 C-44.33 92 -44.66 92 -45 92 C-45.16329535 83.24552822 -45.28712052 74.49159277 -45.3626852 65.73592186 C-45.39898129 61.66877236 -45.44808568 57.60267623 -45.52807617 53.53613281 C-45.60499809 49.60026569 -45.64616712 45.66540153 -45.6641407 41.72883987 C-45.67692292 40.23864606 -45.70187763 38.74849759 -45.7401104 37.25873947 C-46.05356285 24.52037204 -43.21177591 14.23535277 -34.25 4.6875 C-30.08370295 0.82296745 -25.97841793 0.63491749 -20.4921875 0.73828125 C-16.60348693 1.14665576 -14.85788931 2.33263664 -12 5 C-8.24229682 9.71103168 -5.07407492 14.31662803 -3 20 C-2.94465088 19.42967041 -2.88930176 18.85934082 -2.83227539 18.27172852 C-2.58026257 15.70151247 -2.32147272 13.13202369 -2.0625 10.5625 C-1.97548828 9.66466797 -1.88847656 8.76683594 -1.79882812 7.84179688 C-1.71181641 6.98779297 -1.62480469 6.13378906 -1.53515625 5.25390625 C-1.456604 4.46314697 -1.37805176 3.6723877 -1.29711914 2.85766602 C-1 1 -1 1 0 0 Z " fill="#DF9DAA" transform="translate(215,182)"/>
<path d="M0 0 C1.175625 0.5775 2.35125 1.155 3.5625 1.75 C6 3 6 3 7 4 C7.10108569 6.02400258 7.13082627 8.05160069 7.1328125 10.078125 C7.13482666 11.37153809 7.13684082 12.66495117 7.13891602 13.99755859 C7.13481925 15.41504073 7.130168 16.83252136 7.125 18.25 C7.12378143 18.95908508 7.12256287 19.66817017 7.12130737 20.39874268 C7.09986221 31.06283673 6.91237211 41.71673387 6.5625 52.375 C6.50376709 54.23560059 6.50376709 54.23560059 6.44384766 56.13378906 C6.38076416 57.84260254 6.38076416 57.84260254 6.31640625 59.5859375 C6.27974854 60.5867334 6.24309082 61.5875293 6.20532227 62.61865234 C6 65 6 65 5 67 C4.20980469 67.24621094 3.41960937 67.49242187 2.60546875 67.74609375 C-0.99482982 69.47877117 -1.36122425 71.36567157 -2.6875 75.0625 C-4.82254545 80.91127273 -4.82254545 80.91127273 -7 82 C-7.46907051 84.12998171 -7.46907051 84.12998171 -7.6328125 86.69140625 C-7.71660156 87.63564453 -7.80039063 88.57988281 -7.88671875 89.55273438 C-7.96535156 90.54595703 -8.04398438 91.53917969 -8.125 92.5625 C-8.21136719 93.55958984 -8.29773438 94.55667969 -8.38671875 95.58398438 C-8.59956793 98.05539988 -8.80359321 100.52723225 -9 103 C-12.81810531 99.18189469 -13.11053281 92.9899814 -13.25 87.75 C-13.01903286 84.28549295 -12.72471433 81.99555646 -11 79 C-10.01 78.67 -9.02 78.34 -8 78 C-8.061875 77.13117188 -8.12375 76.26234375 -8.1875 75.3671875 C-7.97164638 71.49081623 -6.94815927 69.45310542 -5 66.125 C-4.443125 65.15820312 -3.88625 64.19140625 -3.3125 63.1953125 C-2.879375 62.47085938 -2.44625 61.74640625 -2 61 C-0.33388095 60.957279 1.33382885 60.95936168 3 61 C3.33 61.33 3.66 61.66 4 62 C4.33 57.71 4.66 53.42 5 49 C4.34 49 3.68 49 3 49 C2.97305149 47.04174127 2.95362782 45.08337774 2.9375 43.125 C2.92589844 42.03445312 2.91429687 40.94390625 2.90234375 39.8203125 C3 37 3 37 4 35 C4.66 35 5.32 35 6 35 C6 25.1 6 15.2 6 5 C3.69 5 1.38 5 -1 5 C-4.4296875 3.50390625 -4.4296875 3.50390625 -7.875 1.5625 C-13.36029073 -1.40897374 -17.75432568 -2.78828223 -24 -3 C-24.495 -3.495 -24.495 -3.495 -25 -4 C-30.5903333 -4.51584621 -35.74421286 -4.061093 -41 -2 C-41.91458984 -1.06994141 -41.91458984 -1.06994141 -42.84765625 -0.12109375 C-45.26154295 2.2577456 -47.62950733 3.61708673 -50.625 5.1875 C-51.58664063 5.69667969 -52.54828125 6.20585938 -53.5390625 6.73046875 C-57.98614198 9.02459705 -58.18013172 9 -64 9 C-64 16.26 -64 23.52 -64 31 C-63.01 31.33 -62.02 31.66 -61 32 C-60.97303635 33.79158489 -60.95362083 35.58328473 -60.9375 37.375 C-60.92589844 38.37273437 -60.91429687 39.37046875 -60.90234375 40.3984375 C-61 43 -61 43 -62 45 C-62.99 45 -63.98 45 -65 45 C-65 48.63 -65 52.26 -65 56 C-65.33 56 -65.66 56 -66 56 C-66.05079385 49.13154261 -66.08577306 42.26313385 -66.10986328 35.39453125 C-66.11990831 33.05890086 -66.13354677 30.723283 -66.15087891 28.38769531 C-66.17519277 25.02666119 -66.18649827 21.66579366 -66.1953125 18.3046875 C-66.20563507 17.26384003 -66.21595764 16.22299255 -66.22659302 15.15060425 C-66.2273747 10.07657871 -66.18063547 5.69787583 -64 1 C-62.29296875 -0.03125 -62.29296875 -0.03125 -60.1875 -0.5 C-56.0012687 -1.62940327 -52.28870701 -3.18915697 -48.375 -5.0625 C-30.91586621 -13.16708635 -16.39543007 -8.70734208 0 0 Z " fill="#4F3C41" transform="translate(222,101)"/>
<path d="M0 0 C2.9375 1.0625 2.9375 1.0625 5 2 C5.5259375 1.2575 5.5259375 1.2575 6.0625 0.5 C9.0015795 -1.77541639 11.39426955 -1.32194022 15 -1 C15.99 -0.34 16.98 0.32 18 1 C18 1.99 18 2.98 18 4 C17.34 4.66 16.68 5.32 16 6 C16.28884676 7.34367274 16.62860892 8.67676247 17 10 C16.88755798 12.00794983 16.88755798 12.00794983 16.57788086 14.12524414 C15.94568651 19.09263029 15.8142115 23.99314356 15.75390625 28.99609375 C15.72102173 30.8717504 15.68780934 32.74740133 15.65429688 34.62304688 C15.60660781 37.54838787 15.5620196 40.47369718 15.52319336 43.39916992 C15.48366928 46.24419347 15.43214707 49.08879857 15.37890625 51.93359375 C15.3704921 52.81373642 15.36207794 53.69387909 15.35340881 54.60069275 C15.22685268 60.77314732 15.22685268 60.77314732 13 63 C11.53708385 53.65438032 10.54537716 44.44363607 10 35 C9.01 35 8.02 35 7 35 C6.91773332 38.04386724 7.02391783 40.07175348 8 43 C7.34 43 6.68 43 6 43 C6 45.31 6 47.62 6 50 C5.34 50 4.68 50 4 50 C3.80386406 46.97950658 3.61785145 43.95894342 3.4375 40.9375 C3.38142578 40.08994141 3.32535156 39.24238281 3.26757812 38.36914062 C2.58298966 26.54857975 2.58298966 26.54857975 5.0859375 22.046875 C6.51811758 18.8397709 5.94709064 15.65771901 5.625 12.25 C5.56828125 11.55261719 5.5115625 10.85523437 5.453125 10.13671875 C5.31232128 8.42360688 5.15754028 6.71165389 5 5 C4.01 4.67 3.02 4.34 2 4 C1.17595797 14.97745316 0.72621463 25.93452654 0.4375 36.9375 C0.39414616 38.50716883 0.35052764 40.07683037 0.30664062 41.64648438 C0.2013908 45.43091295 0.0996701 49.21542054 0 53 C-4.51758227 47.40279596 -3.81934603 40.9124651 -4 34 C-4.02723145 33.10667969 -4.05446289 32.21335938 -4.08251953 31.29296875 C-4.16107779 28.40360583 -4.210339 25.51514343 -4.25 22.625 C-4.27151123 21.71057129 -4.29302246 20.79614258 -4.31518555 19.85400391 C-4.34476128 13.70559934 -3.31221996 8.69684963 -1 3 C-4.01031744 2.06576355 -4.86650268 1.95550089 -8 3 C-8.54369119 4.95089193 -9.08121196 6.9074855 -9.47265625 8.89453125 C-10.03458033 11.13806519 -10.90153063 12.97170594 -12 15 C-12.34707004 9.21549928 -12.27233705 5.03436469 -9 0 C-5.88089111 -1.55955444 -3.36157873 -0.62673502 0 0 Z " fill="#F9B5C4" transform="translate(105,85)"/>
<path d="M0 0 C0.33 0 0.66 0 1 0 C2.06146319 10.32607878 2.30079319 20.63052648 2.5 31 C2.5198999 31.96357422 2.5397998 32.92714844 2.56030273 33.91992188 C2.89567509 50.29966414 3.08285178 66.68034927 3.25 83.0625 C3.26047867 84.07935883 3.27095734 85.09621765 3.28175354 86.14389038 C3.38851349 96.52022078 3.49162537 106.89655828 3.58079529 117.27305603 C3.61557892 121.23852914 3.65368546 125.20396643 3.69238281 129.16940308 C3.70965531 131.02365754 3.72541812 132.87792683 3.73950195 134.73220825 C3.80686126 143.5569872 3.93038293 152.37332217 4.39257812 161.1875 C4.45964966 162.48042969 4.52672119 163.77335938 4.5958252 165.10546875 C4.79589172 166.53826172 4.79589172 166.53826172 5 168 C5.66 168.33 6.32 168.66 7 169 C6.01 169 5.02 169 4 169 C-2.48259844 159.38066038 -1.14671926 148.24566139 -1.12939453 137.01928711 C-1.13075205 135.53176837 -1.13253394 134.04424996 -1.13470459 132.55673218 C-1.13923369 128.54704602 -1.13750906 124.5373858 -1.1343255 120.52769923 C-1.13178267 116.3254774 -1.13414439 112.12325769 -1.13571167 107.92103577 C-1.13752595 100.87614546 -1.13514464 93.83126566 -1.13037109 86.78637695 C-1.12491086 78.63370933 -1.12670682 70.48106664 -1.1321975 62.3283996 C-1.13672711 55.32271801 -1.1373805 48.31704395 -1.13475883 41.31136137 C-1.13319766 37.12912401 -1.13299832 32.9468984 -1.13629532 28.76466179 C-1.13917246 24.84202649 -1.1372013 20.91942362 -1.13140106 16.99679184 C-1.13007343 15.55396516 -1.13046764 14.11113578 -1.13266373 12.66831017 C-1.13537458 10.7073768 -1.13138098 8.74643751 -1.12698364 6.7855072 C-1.12660662 5.68589126 -1.12622959 4.58627531 -1.12584114 3.45333767 C-1 1 -1 1 0 0 Z " fill="#4A4547" transform="translate(172,220)"/>
<path d="M0 0 C2.99583184 1.52713405 4.21476517 2.22717456 6 5 C6.68310023 10.18357225 6.27834166 15.30405831 5.9375 20.5 C5.86760298 21.88918294 5.80052481 23.27851071 5.73632812 24.66796875 C5.52238024 29.11389756 5.26133922 33.55664761 5 38 C3.88804437 56.9057741 3.69330737 75.8171661 3.47393799 94.74920654 C3.42286389 99.15003204 3.36814845 103.55077945 3.30812073 107.95149231 C3.28180534 109.98826734 3.26087481 112.02505165 3.2401123 114.06188965 C3.22339478 115.29507935 3.20667725 116.52826904 3.18945312 117.79882812 C3.17692505 118.87910278 3.16439697 119.95937744 3.15148926 121.0723877 C3.00914166 123.8233325 2.56366064 126.31061561 2 129 C1.91289548 130.37949069 1.86521243 131.76206718 1.8581543 133.14428711 C1.85111984 133.92537338 1.84408539 134.70645966 1.83683777 135.51121521 C1.83267349 136.34153763 1.82850922 137.17186005 1.82421875 138.02734375 C1.80102732 139.80665254 1.77691026 141.58594947 1.75195312 143.36523438 C1.71682886 146.15429738 1.68747396 148.94292025 1.67407227 151.73217773 C1.65856333 154.43526547 1.61834974 157.13709128 1.57421875 159.83984375 C1.57612717 160.66814194 1.57803558 161.49644012 1.58000183 162.34983826 C1.46535639 167.80188551 0.51888733 170.78505039 -3 175 C-3.33 175 -3.66 175 -4 175 C-4 172.36 -4 169.72 -4 167 C-3.34 167 -2.68 167 -2 167 C-1.82252518 159.66689157 -1.65707506 152.33357385 -1.5 145 C-1.47599121 143.88140594 -1.45198242 142.76281189 -1.42724609 141.61032104 C-0.9826588 120.29905203 -0.92725964 98.99676902 -1.03710938 77.68164062 C-1.04133911 76.52683701 -1.04556885 75.37203339 -1.04992676 74.18223572 C-1.05808853 72.01763305 -1.07045543 69.85304063 -1.08776855 67.68849182 C-1.09103149 66.73047165 -1.09429443 65.77245148 -1.09765625 64.78540039 C-1.10289307 63.9532753 -1.10812988 63.12115021 -1.11352539 62.2638092 C-1.00159814 60.03186858 -0.54757686 58.15867381 0 56 C0.1206487 54.37829311 0.1956244 52.75285787 0.23706055 51.12719727 C0.26346115 50.162621 0.28986176 49.19804474 0.31706238 48.20423889 C0.35154228 46.65101173 0.35154228 46.65101173 0.38671875 45.06640625 C0.42500542 43.46127419 0.42500542 43.46127419 0.46406555 41.82371521 C0.51603571 39.56181293 0.56546715 37.29985111 0.61254883 35.0378418 C0.68714609 31.57891026 0.77782237 28.12063462 0.86914062 24.66210938 C0.91765718 22.4635633 0.96521515 20.26499582 1.01171875 18.06640625 C1.04077805 17.03294571 1.06983734 15.99948517 1.09977722 14.93470764 C1.11672134 13.96697922 1.13366547 12.99925079 1.15112305 12.00219727 C1.17031296 11.15488541 1.18950287 10.30757355 1.20927429 9.43458557 C0.97104571 6.66316123 0.02997623 4.56631243 -1 2 C-0.67 1.34 -0.34 0.68 0 0 Z " fill="#393939" transform="translate(206,216)"/>
<path d="M0 0 C1.98 0 3.96 0 6 0 C5.95875 1.216875 5.9175 2.43375 5.875 3.6875 C5.86245492 7.21894127 6.40001783 9.80003566 8 13 C7.34 13.66 6.68 14.32 6 15 C5.61596877 16.94151362 5.61596877 16.94151362 5.5 19.0625 C5.335 20.361875 5.17 21.66125 5 23 C4.34 23.33 3.68 23.66 3 24 C3.66 24.33 4.32 24.66 5 25 C5.66 25.99 6.32 26.98 7 28 C7.66 28.66 8.32 29.32 9 30 C7.125 35.75 7.125 35.75 6 38 C4.02 38 2.04 38 0 38 C1.06645115 39.29633621 1.06645115 39.29633621 3.5625 39.0625 C4.366875 39.041875 5.17125 39.02125 6 39 C6 41.64 6 44.28 6 47 C4.02 47 2.04 47 0 47 C1.06645115 48.29633621 1.06645115 48.29633621 3.5625 48.0625 C4.366875 48.041875 5.17125 48.02125 6 48 C5.67 49.32 5.34 50.64 5 52 C3.35 52 1.7 52 0 52 C1.06645115 53.29633621 1.06645115 53.29633621 3.5625 53.0625 C4.366875 53.041875 5.17125 53.02125 6 53 C5.505 55.475 5.505 55.475 5 58 C3.35 58 1.7 58 0 58 C-2.35065576 53.35587921 -2.29077105 49.16587746 -2.265625 44.0859375 C-2.26753845 43.23448151 -2.2694519 42.38302551 -2.27142334 41.50576782 C-2.27278042 39.71217553 -2.26911735 37.91857325 -2.26074219 36.125 C-2.2500093 33.37738092 -2.26066711 30.6304117 -2.2734375 27.8828125 C-2.27211634 26.13801939 -2.26955485 24.39322668 -2.265625 22.6484375 C-2.26967346 21.82652924 -2.27372192 21.00462097 -2.27789307 20.1578064 C-2.24573628 16.25856479 -2.2118232 14.3177348 0 11 C-0.66 10.34 -1.32 9.68 -2 9 C-1.45652174 2.91304348 -1.45652174 2.91304348 0 0 Z " fill="#393939" transform="translate(186,266)"/>
<path d="M0 0 C6.92632223 -0.70437175 6.92632223 -0.70437175 9.71484375 1.125 C11.125 2.625 11.125 2.625 13 6 C12.5625 9.3125 12.5625 9.3125 11 12 C8.90234375 12.66796875 8.90234375 12.66796875 7 13 C6.11184473 19.95668947 5.79544871 26.80735702 5.68359375 33.81640625 C5.66281265 34.91347397 5.64203156 36.01054169 5.62062073 37.14085388 C5.55570203 40.61467769 5.49651078 44.08857132 5.4375 47.5625 C5.39425981 49.9303455 5.35064385 52.29818418 5.30664062 54.66601562 C5.20008052 60.44393852 5.09821151 66.22192949 5 72 C4.67 72 4.34 72 4 72 C3.67 57.48 3.34 42.96 3 28 C2.01 28.66 1.02 29.32 0 30 C-1.60975585 23.79094172 -2.04451219 18.3559022 -1.83984375 11.9375 C-2.00681534 8.87499672 -2.70614653 6.76022074 -4 4 C-3.01 4 -2.02 4 -1 4 C-0.67 2.68 -0.34 1.36 0 0 Z " fill="#FAB2C2" transform="translate(128,84)"/>
<path d="M0 0 C0.66 0 1.32 0 2 0 C1.98839844 0.92683594 1.97679687 1.85367188 1.96484375 2.80859375 C1.95582031 4.00613281 1.94679687 5.20367187 1.9375 6.4375 C1.92589844 7.63246094 1.91429687 8.82742187 1.90234375 10.05859375 C1.66098208 12.88873341 1.66098208 12.88873341 3 14 C3.42809964 18.92812375 3.19078768 23.64056807 2 28.4375 C0.17199366 36.43180943 0.84942931 44.85245276 1 53 C0.360625 53.28875 -0.27875 53.5775 -0.9375 53.875 C-3.15206079 54.82823451 -3.15206079 54.82823451 -4 57 C-4.04969116 50.75611512 -4.08585699 44.51234712 -4.10986328 38.26831055 C-4.11987844 36.14719638 -4.13349446 34.02609587 -4.15087891 31.9050293 C-4.17532525 28.84420384 -4.18652825 25.78356203 -4.1953125 22.72265625 C-4.20563507 21.78478775 -4.21595764 20.84691925 -4.22659302 19.88063049 C-4.22777307 12.84813339 -3.98594844 5.97892266 0 0 Z " fill="#F88BA3" transform="translate(138,96)"/>
<path d="M0 0 C0.33 0 0.66 0 1 0 C1.32316201 27.26493008 0.8195492 54.49920447 0.13027191 81.75393677 C0.06299316 84.4179725 -0.00332251 87.08203093 -0.06951904 89.74609375 C-0.87320483 121.89088463 -0.87320483 121.89088463 -1.50390625 134.91015625 C-1.53910873 135.64962997 -1.57431122 136.3891037 -1.61058044 137.15098572 C-1.86139542 141.80626847 -2.38029792 146.38271947 -3 151 C-3.33 151 -3.66 151 -4 151 C-4.02476651 145.67977231 -4.04289156 140.35957838 -4.05493164 135.03930664 C-4.05995238 133.23038142 -4.06677029 131.42146024 -4.07543945 129.61254883 C-4.08760402 127.00861614 -4.09325098 124.40473723 -4.09765625 121.80078125 C-4.10539818 120.59268547 -4.10539818 120.59268547 -4.11329651 119.36018372 C-4.11337204 118.5997728 -4.11344757 117.83936188 -4.11352539 117.0559082 C-4.115746 116.39194534 -4.11796661 115.72798248 -4.12025452 115.04389954 C-4 113 -4 113 -3.50375366 110.61225891 C-2.94975375 107.73944364 -2.85385909 105.07324391 -2.82641602 102.14794922 C-2.81285065 100.98436386 -2.79928528 99.8207785 -2.78530884 98.62193298 C-2.77494598 97.36224197 -2.76458313 96.10255096 -2.75390625 94.8046875 C-2.73897476 93.47029468 -2.72344867 92.13590839 -2.70736694 90.80152893 C-2.67350012 87.96453531 -2.64159711 85.12753078 -2.61129761 82.29049683 C-2.31308992 54.82527819 -1.57761439 27.42568944 0 0 Z " fill="#92878A" transform="translate(211,232)"/>
<path d="M0 0 C0.99 0.33 1.98 0.66 3 1 C2.87847081 5.31526316 2.75417212 9.63043662 2.62768555 13.94555664 C2.58532227 15.4025678 2.54361867 16.85959835 2.50268555 18.31665039 C2.11669747 32.02637511 2.11669747 32.02637511 1.75927734 38.62158203 C1.1730091 49.44436708 0.86552366 60.25655769 0.71875 71.09375 C0.7091519 71.79917246 0.69955379 72.50459492 0.68966484 73.23139381 C0.61163875 79.07059139 0.54159944 84.90988061 0.47393799 90.74920654 C0.42286389 95.15003204 0.36814845 99.55077945 0.30812073 103.95149231 C0.28180534 105.98826734 0.26087481 108.02505165 0.2401123 110.06188965 C0.22339478 111.29507935 0.20667725 112.52826904 0.18945312 113.79882812 C0.17066101 115.41924011 0.17066101 115.41924011 0.15148926 117.0723877 C0.00951361 119.81614434 -0.38235963 122.32726516 -1 125 C-1.33 125 -1.66 125 -2 125 C-2.06236259 115.22922494 -2.10235487 105.45843951 -2.125 95.6875 C-2.12671204 94.95410652 -2.12842407 94.22071304 -2.13018799 93.46509552 C-2.19436667 62.27329271 -1.31768892 31.16429625 0 0 Z " fill="#524F4F" transform="translate(209,220)"/>
<path d="M0 0 C0.66 0 1.32 0 2 0 C2.02469321 4.2358357 2.04285671 8.47163342 2.05493164 12.70751953 C2.05996474 14.1489332 2.06679173 15.59034176 2.07543945 17.03173828 C2.08754983 19.10190085 2.09323847 21.17199601 2.09765625 23.2421875 C2.10551147 25.11173096 2.10551147 25.11173096 2.11352539 27.01904297 C2 30 2 30 1 32 C0.20980469 32.24621094 -0.58039063 32.49242187 -1.39453125 32.74609375 C-4.99482982 34.47877117 -5.36122425 36.36567157 -6.6875 40.0625 C-8.82254545 45.91127273 -8.82254545 45.91127273 -11 47 C-11.46907051 49.12998171 -11.46907051 49.12998171 -11.6328125 51.69140625 C-11.71660156 52.63564453 -11.80039063 53.57988281 -11.88671875 54.55273438 C-11.96535156 55.54595703 -12.04398438 56.53917969 -12.125 57.5625 C-12.21136719 58.55958984 -12.29773438 59.55667969 -12.38671875 60.58398438 C-12.59956793 63.05539988 -12.80359321 65.52723225 -13 68 C-16.81810531 64.18189469 -17.11053281 57.9899814 -17.25 52.75 C-17.01903286 49.28549295 -16.72471433 46.99555646 -15 44 C-13.515 43.505 -13.515 43.505 -12 43 C-12.0928125 41.69675781 -12.0928125 41.69675781 -12.1875 40.3671875 C-11.97164638 36.49081623 -10.94815927 34.45310542 -9 31.125 C-8.443125 30.15820312 -7.88625 29.19140625 -7.3125 28.1953125 C-6.879375 27.47085938 -6.44625 26.74640625 -6 26 C-4.33388095 25.957279 -2.66617115 25.95936168 -1 26 C-0.67 26.33 -0.34 26.66 0 27 C0.33 22.71 0.66 18.42 1 14 C0.34 14 -0.32 14 -1 14 C-1.02694851 12.04174127 -1.04637218 10.08337774 -1.0625 8.125 C-1.07410156 7.03445312 -1.08570313 5.94390625 -1.09765625 4.8203125 C-1 2 -1 2 0 0 Z " fill="#423E3F" transform="translate(226,136)"/>
<path d="M0 0 C1.2065625 0.0309375 1.2065625 0.0309375 2.4375 0.0625 C2.2836937 1.05532486 2.12988739 2.04814972 1.97142029 3.07106018 C1.41070598 7.01086265 1.11501756 10.95365307 0.89477539 14.92553711 C0.85295419 15.66217307 0.81113298 16.39880903 0.76804447 17.1577673 C0.33861529 25.18713628 0.2123322 33.2148219 0.12109375 41.25390625 C0.1004398 42.82145121 0.07944173 44.38899168 0.05812073 45.95652771 C0.00376882 50.01854733 -0.04601127 54.08060959 -0.09472656 58.1427002 C-0.14558967 62.31326954 -0.2009321 66.48377942 -0.25585938 70.65429688 C-0.36237272 78.79031384 -0.46403984 86.92638161 -0.5625 95.0625 C-1.2225 95.0625 -1.8825 95.0625 -2.5625 95.0625 C-2.69489043 86.20250492 -2.82538716 77.34248433 -2.95365143 68.48242855 C-3.01330457 64.36563212 -3.07354183 60.2488462 -3.13525391 56.13208008 C-3.60477875 24.74866881 -3.60477875 24.74866881 -3.65625 10.31640625 C-3.6627356 9.36974594 -3.66922119 8.42308563 -3.67590332 7.44773865 C-3.67742895 5.31899066 -3.62651395 3.19028583 -3.5625 1.0625 C-2.5625 0.0625 -2.5625 0.0625 0 0 Z " fill="#F8A3B6" transform="translate(275.5625,88.9375)"/>
<path d="M0 0 C2.20178777 3.55837258 2.26708411 6.49307414 2.30297852 10.6315918 C2.31563751 11.62097244 2.31563751 11.62097244 2.32855225 12.63034058 C2.35439102 14.8199744 2.36652011 17.00947092 2.37890625 19.19921875 C2.39512955 20.75113421 2.41231436 22.30303988 2.43040466 23.85493469 C2.4761826 27.9669622 2.51084458 32.07900517 2.54260254 36.19116211 C2.59404692 42.64538089 2.66073535 49.09946893 2.72874069 55.55353165 C2.74550454 57.14940097 2.76186515 58.74527458 2.77782059 60.34115219 C2.94654033 76.90221539 3.41996158 93.44861775 4 110 C1.52906887 107.09970648 0.592653 105.16669098 0.31959534 101.37173462 C0.25530901 100.48991138 0.19102268 99.60808815 0.12478828 98.699543 C-0.07024164 94.48046361 -0.13114565 90.27548258 -0.11352539 86.05224609 C-0.11367142 85.11444305 -0.11381744 84.17664001 -0.1139679 83.2104187 C-0.11327798 80.14806709 -0.10552924 77.08577832 -0.09765625 74.0234375 C-0.09578879 71.88538649 -0.09436644 69.74733504 -0.09336853 67.60928345 C-0.08956917 62.00997719 -0.07976117 56.41069729 -0.06866455 50.81140137 C-0.05839469 45.08651079 -0.05385901 39.36161591 -0.04882812 33.63671875 C-0.03813637 22.42446765 -0.02109127 11.21223603 0 0 Z " fill="#887D81" transform="translate(171,276)"/>
<path d="M0 0 C0 16.17 0 32.34 0 49 C-1.32 49 -2.64 49 -4 49 C-4.19313626 43.28950276 -4.37171577 37.57879985 -4.53710938 31.86743164 C-4.59533086 29.92655382 -4.65745474 27.98578883 -4.72363281 26.04516602 C-4.81833827 23.2477677 -4.89877355 20.45025748 -4.9765625 17.65234375 C-5.00875885 16.7916478 -5.0409552 15.93095184 -5.0741272 15.04417419 C-5.19957417 9.94265349 -4.82437168 5.79263309 -3 1 C-1 0 -1 0 0 0 Z " fill="#434343" transform="translate(189,354)"/>
<path d="M0 0 C0 3 0 3 -1.02099609 5.06298828 C-2.47479568 9.42438703 -1.95247954 13.44391407 -1.6640625 17.9921875 C-1.04281875 30.12252406 -0.79823822 42.23890503 -0.6484375 54.3828125 C-0.63658669 55.33755211 -0.62473587 56.29229172 -0.61252594 57.27596283 C-0.5523424 62.21291104 -0.49602489 67.14989067 -0.44238281 72.08691406 C-0.38718059 77.14165552 -0.32329156 82.196247 -0.25720787 87.2508564 C-0.20679796 91.20256267 -0.16183551 95.15431765 -0.11836624 99.1061058 C-0.09708482 100.96934073 -0.07399001 102.83255602 -0.0489006 104.69574356 C0.09423897 115.52427184 -0.07073135 126.20516422 -1 137 C-1.33 137 -1.66 137 -2 137 C-2.0154612 135.85015373 -2.0154612 135.85015373 -2.03123474 134.67707825 C-2.10140019 129.46732383 -2.17163193 124.25757088 -2.24325562 119.0478363 C-2.26414282 117.52765914 -2.28502694 116.00748193 -2.3059082 114.48730469 C-2.31666004 113.70497247 -2.32741188 112.92264025 -2.33848953 112.11660099 C-2.40518348 107.24175013 -2.46931033 102.36687278 -2.53164577 97.49196434 C-2.73941688 81.31226521 -2.97192261 65.13526012 -3.37602806 48.95912743 C-3.48006421 44.72903513 -3.57432924 40.49870989 -3.66918659 36.26840305 C-3.74526479 32.93424085 -3.83187552 29.60079815 -3.93136597 26.26724243 C-4.04110797 22.57939399 -4.12660287 18.89171101 -4.20703125 15.203125 C-4.24637787 14.11793076 -4.28572449 13.03273651 -4.32626343 11.91465759 C-4.45256155 4.60707469 -4.45256155 4.60707469 -1.98706055 1.29980469 C-1.33133057 0.87086914 -0.67560059 0.44193359 0 0 Z " fill="#333132" transform="translate(177,215)"/>
<path d="M0 0 C1.32 0.33 2.64 0.66 4 1 C3.34 1.66 2.68 2.32 2 3 C2.28884676 4.34367274 2.62860892 5.67676247 3 7 C2.88755798 9.00794983 2.88755798 9.00794983 2.57788086 11.12524414 C1.94568651 16.09263029 1.8142115 20.99314356 1.75390625 25.99609375 C1.72102173 27.8717504 1.68780934 29.74740133 1.65429688 31.62304688 C1.60660781 34.54838787 1.5620196 37.47369718 1.52319336 40.39916992 C1.48366928 43.24419347 1.43214707 46.08879857 1.37890625 48.93359375 C1.3704921 49.81373642 1.36207794 50.69387909 1.35340881 51.60069275 C1.22685268 57.77314732 1.22685268 57.77314732 -1 60 C-2.02067027 49.76510848 -2.1862437 39.59124106 -2.18530273 29.31396484 C-2.18751316 26.6088948 -2.2058077 23.90421836 -2.22460938 21.19921875 C-2.22754016 19.4583347 -2.22952706 17.71744876 -2.23046875 15.9765625 C-2.23765427 15.17852203 -2.24483978 14.38048157 -2.25224304 13.55825806 C-2.23239038 8.66488487 -1.55758025 4.64457545 0 0 Z " fill="#FBA7B9" transform="translate(119,88)"/>
<path d="M0 0 C0.99 0 1.98 0 3 0 C2.93433838 0.87470947 2.86867676 1.74941895 2.80102539 2.65063477 C2.08127508 12.74366238 1.70289082 22.8234015 1.4375 32.9375 C1.39414616 34.50716883 1.35052764 36.07683037 1.30664062 37.64648438 C1.2013908 41.43091295 1.0996701 45.21542054 1 49 C-3.5464426 43.36703852 -2.83048347 36.99820752 -3 30 C-3.03287109 28.64406738 -3.03287109 28.64406738 -3.06640625 27.26074219 C-3.1255422 24.34041177 -3.16143444 21.42080401 -3.1875 18.5 C-3.20063232 17.56881348 -3.21376465 16.63762695 -3.22729492 15.67822266 C-3.23349122 10.38849206 -2.80347576 5.98805191 -1 1 C-0.67 0.67 -0.34 0.34 0 0 Z " fill="#FB9DB2" transform="translate(104,89)"/>
<path d="M0 0 C1.32 0.33 2.64 0.66 4 1 C4.12825981 13.6549681 3.94042797 26.28886363 3.5625 38.9375 C3.54285187 39.64003906 3.52320374 40.34257812 3.50296021 41.06640625 C3.44533786 43.0951868 3.38097649 45.12377245 3.31640625 47.15234375 C3.27974854 48.32788818 3.24309082 49.50343262 3.20532227 50.71459961 C3.00800029 53.87198581 2.58023476 56.89233696 2 60 C1.67 60 1.34 60 1 60 C0.19339409 39.98501825 -0.13954966 20.03074318 0 0 Z " fill="#F8A3B7" transform="translate(257,90)"/>
<path d="M0 0 C11.92049335 -0.94941982 21.66874796 3.5132427 32 9 C33.175625 9.5775 34.35125 10.155 35.5625 10.75 C38 12 38 12 39 13 C39.0883967 15.3756852 39.11530305 17.72208674 39.09765625 20.09765625 C39.0962413 20.80651474 39.09482635 21.51537323 39.09336853 22.24571228 C39.08775443 24.51801712 39.07519963 26.79022475 39.0625 29.0625 C39.05748681 30.59960796 39.05292359 32.13671745 39.04882812 33.67382812 C39.03778042 37.44925642 39.02050641 41.22461171 39 45 C38.67 45 38.34 45 38 45 C38 34.77 38 24.54 38 14 C35.69 14 33.38 14 31 14 C28.46500444 12.98766589 26.24604859 11.98245731 23.875 10.6875 C23.28074219 10.37876953 22.68648437 10.07003906 22.07421875 9.75195312 C19.46935319 8.38626754 16.94129248 6.96236929 14.46484375 5.375 C11.58332463 3.76755986 8.89746896 3.05326207 5.6875 2.3125 C4.61886719 2.06113281 3.55023438 1.80976562 2.44921875 1.55078125 C1.64097656 1.36902344 0.83273438 1.18726562 0 1 C0 0.67 0 0.34 0 0 Z " fill="#8F6A74" transform="translate(190,92)"/>
<path d="M0 0 C1.1055189 0.93590504 2.20935453 1.87379858 3.3125 2.8125 C3.92738281 3.33457031 4.54226562 3.85664063 5.17578125 4.39453125 C5.77777344 4.92433594 6.37976563 5.45414063 7 6 C7.54011719 6.47179687 8.08023438 6.94359375 8.63671875 7.4296875 C10.27897156 9.32133687 10.80417832 10.91440027 11.5 13.3125 C12.37860672 16.21470626 13.20366608 18.34914185 14.75 21 C16.27275222 24.65460533 15.92804322 26.85753054 15.3203125 30.69140625 C15.00651257 32.95306187 14.98613854 35.03438309 15.0625 37.3125 C15.00545994 40.67786331 14.82786004 42.25820994 13 45 C12.67 45 12.34 45 12 45 C11.90203125 43.70707031 11.8040625 42.41414063 11.703125 41.08203125 C10.84857633 30.82349558 9.46742158 21.72679299 6 12 C5.85820312 11.26265625 5.71640625 10.5253125 5.5703125 9.765625 C5.08780111 7.59401295 5.08780111 7.59401295 1.9375 6.25 C0.968125 5.8375 -0.00125 5.425 -1 5 C-0.67 3.35 -0.34 1.7 0 0 Z " fill="#564B4E" transform="translate(158,160)"/>
<path d="M0 0 C2.56652079 2.13133509 3.88671397 3.27558473 4.41181946 6.63340759 C4.37042343 7.63344315 4.3290274 8.6334787 4.28637695 9.66381836 C4.24926102 10.80278061 4.21214508 11.94174286 4.17390442 13.11521912 C4.11264877 14.34434525 4.05139313 15.57347137 3.98828125 16.83984375 C3.91676094 18.74945641 3.91676094 18.74945641 3.84379578 20.69764709 C3.71269123 24.08843972 3.5634899 27.47747138 3.40582275 30.86706543 C3.28272167 33.59815432 3.17661105 36.32976768 3.07168293 39.06160641 C2.76504488 47.04357495 2.43624052 55.02393715 2 63 C1.93573822 64.20729767 1.87147644 65.41459534 1.80526733 66.65847778 C1.73184113 67.82378021 1.65841492 68.98908264 1.58276367 70.18969727 C1.51925217 71.23480972 1.45574066 72.27992218 1.39030457 73.35670471 C1 76 1 76 -1 79 C-1.02911321 75.9166866 -1.04683682 72.83340875 -1.0625 69.75 C-1.07087891 68.87730469 -1.07925781 68.00460937 -1.08789062 67.10546875 C-1.09111328 66.26113281 -1.09433594 65.41679687 -1.09765625 64.546875 C-1.10551147 63.38430176 -1.10551147 63.38430176 -1.11352539 62.19824219 C-1 60 -1 60 -0.50772095 58.16716003 C0.0535522 55.77141738 0.17437124 53.58668082 0.23706055 51.12719727 C0.26346115 50.162621 0.28986176 49.19804474 0.31706238 48.20423889 C0.35154228 46.65101173 0.35154228 46.65101173 0.38671875 45.06640625 C0.41224319 43.99631821 0.43776764 42.92623016 0.46406555 41.82371521 C0.51603571 39.56181293 0.56546715 37.29985111 0.61254883 35.0378418 C0.68714609 31.57891026 0.77782237 28.12063462 0.86914062 24.66210938 C0.91765718 22.4635633 0.96521515 20.26499582 1.01171875 18.06640625 C1.04077805 17.03294571 1.06983734 15.99948517 1.09977722 14.93470764 C1.11672134 13.96697922 1.13366547 12.99925079 1.15112305 12.00219727 C1.17031296 11.15488541 1.18950287 10.30757355 1.20927429 9.43458557 C0.97104571 6.66316123 0.02997623 4.56631243 -1 2 C-0.67 1.34 -0.34 0.68 0 0 Z " fill="#353535" transform="translate(206,216)"/>
<path d="M0 0 C1.01973129 3.05919388 1.11533602 5.12418025 1.09765625 8.32421875 C1.09443359 9.35224609 1.09121094 10.38027344 1.08789062 11.43945312 C1.07951172 12.51130859 1.07113281 13.58316406 1.0625 14.6875 C1.05798828 15.77095703 1.05347656 16.85441406 1.04882812 17.97070312 C1.03703757 20.64715894 1.01910208 23.32358639 1 26 C1.99 20.72 2.98 15.44 4 10 C4.66 10 5.32 10 6 10 C5.85923685 11.9587043 5.7122324 13.91696093 5.5625 15.875 C5.48128906 16.96554688 5.40007812 18.05609375 5.31640625 19.1796875 C5 22 5 22 4 24 C3.91657841 25.44848582 3.89267139 26.90070869 3.90234375 28.3515625 C3.90556641 29.20234375 3.90878906 30.053125 3.91210938 30.9296875 C3.92048828 31.81914062 3.92886719 32.70859375 3.9375 33.625 C3.94201172 34.5221875 3.94652344 35.419375 3.95117188 36.34375 C3.96297409 38.56256648 3.97943845 40.78125018 4 43 C3.360625 43.28875 2.72125 43.5775 2.0625 43.875 C-0.15206079 44.82823451 -0.15206079 44.82823451 -1 47 C-1.02529825 40.62793828 -1.04284496 34.25588946 -1.05493164 27.88378906 C-1.05996891 25.71483883 -1.06679891 23.545892 -1.07543945 21.37695312 C-1.08753151 18.26431437 -1.09323428 15.1517204 -1.09765625 12.0390625 C-1.10281754 11.065065 -1.10797882 10.0910675 -1.11329651 9.08755493 C-1.11337204 8.18677216 -1.11344757 7.28598938 -1.11352539 6.35791016 C-1.115746 5.56293121 -1.11796661 4.76795227 -1.12025452 3.94888306 C-1 2 -1 2 0 0 Z " fill="#FA95AB" transform="translate(135,106)"/>
<path d="M0 0 C2.97 0.99 5.94 1.98 9 3 C8.690625 3.70125 8.38125 4.4025 8.0625 5.125 C6.45616781 9.47154594 6 13.37585766 6 18 C6 18.66 6 19.32 6 20 C4.02 20 2.04 20 0 20 C0 16.66666667 0 13.33333333 0 10 C-0.33 9.67 -0.66 9.34 -1 9 C-1.23728814 2.47457627 -1.23728814 2.47457627 0 0 Z " fill="#353535" transform="translate(186,228)"/>
<path d="M0 0 C-0.99 0.33 -1.98 0.66 -3 1 C-3 1.66 -3 2.32 -3 3 C-4.65 3.33 -6.3 3.66 -8 4 C-8 4.66 -8 5.32 -8 6 C-21.47794118 14.02941176 -21.47794118 14.02941176 -29 15 C-28.67 13.02 -28.34 11.04 -28 9 C-26.783125 8.62875 -25.56625 8.2575 -24.3125 7.875 C-18.97497916 6.1127709 -13.97913419 3.73549814 -8.91796875 1.3046875 C-2.83250883 -1.41625442 -2.83250883 -1.41625442 0 0 Z " fill="#72686B" transform="translate(186,93)"/>
<path d="M0 0 C1.65 0 3.3 0 5 0 C5 2.64 5 5.28 5 8 C3.02 8 1.04 8 -1 8 C0.06645115 9.29633621 0.06645115 9.29633621 2.5625 9.0625 C3.366875 9.041875 4.17125 9.02125 5 9 C4.67 10.32 4.34 11.64 4 13 C2.35 13 0.7 13 -1 13 C0.06645115 14.29633621 0.06645115 14.29633621 2.5625 14.0625 C3.366875 14.041875 4.17125 14.02125 5 14 C4.67 15.65 4.34 17.3 4 19 C2.35 19 0.7 19 -1 19 C-3.75263224 13.15065649 -3.18593628 8.22616544 -2 2 C-1.34 2 -0.68 2 0 2 C0 1.34 0 0.68 0 0 Z " fill="#434343" transform="translate(187,305)"/>
<path d="M0 0 C0.33 0 0.66 0 1 0 C1 7.26 1 14.52 1 22 C1.99 22.33 2.98 22.66 4 23 C4.02696365 24.79158489 4.04637917 26.58328473 4.0625 28.375 C4.07410156 29.37273437 4.08570313 30.37046875 4.09765625 31.3984375 C4 34 4 34 3 36 C2.01 36 1.02 36 0 36 C0 39.63 0 43.26 0 47 C-0.33 47 -0.66 47 -1 47 C-1.12806208 31.29761929 -0.87193986 15.67934708 0 0 Z " fill="#4E1C29" transform="translate(157,110)"/>
<path d="M0 0 C0.33 0 0.66 0 1 0 C1 3.96 1 7.92 1 12 C3.8771875 11.8453125 3.8771875 11.8453125 6.8125 11.6875 C7.89144531 11.62949219 8.97039062 11.57148438 10.08203125 11.51171875 C12.96311696 11.2171246 12.96311696 11.2171246 14.84375 9.71875 C16.22136717 7.6709407 16.48681783 6.26082245 16.6875 3.8125 C16.790625 2.554375 16.89375 1.29625 17 0 C17.33 0 17.66 0 18 0 C18.0810206 2.10353495 18.13919907 4.20795952 18.1875 6.3125 C18.23970703 8.07013672 18.23970703 8.07013672 18.29296875 9.86328125 C18 13 18 13 16.76171875 14.8671875 C13.47533828 16.98038115 9.830896 17.02016261 6 17 C1.76470588 15.76470588 1.76470588 15.76470588 0 14 C-0.07271741 11.64686445 -0.08370868 9.29166332 -0.0625 6.9375 C-0.05347656 5.64714844 -0.04445312 4.35679687 -0.03515625 3.02734375 C-0.02355469 2.02832031 -0.01195312 1.02929688 0 0 Z " fill="#534246" transform="translate(181,398)"/>
<path d="M0 0 C0.99 0 1.98 0 3 0 C3 11.55 3 23.1 3 35 C2.01 35 1.02 35 0 35 C0 23.45 0 11.9 0 0 Z " fill="#575657" transform="translate(186,367)"/>
<path d="M0 0 C0.66 0.33 1.32 0.66 2 1 C2.12135629 16.70350428 1.93201642 32.32215242 1 48 C0.67 48 0.34 48 0 48 C0.00112793 47.06728271 0.00225586 46.13456543 0.00341797 45.17358398 C-0.00655561 41.68565053 -0.0432657 38.20006301 -0.09765625 34.71264648 C-0.11573371 33.20850471 -0.12339978 31.70419799 -0.12011719 30.19995117 C0.20585997 20.17440941 0.20585997 20.17440941 -4.0546875 11.47265625 C-5.02664062 10.65667969 -5.99859375 9.84070313 -7 9 C-4.525 9.99 -4.525 9.99 -2 11 C-0.33657163 9.33657163 -0.63951903 7.2174291 -0.4375 4.9375 C-0.35371094 4.01839844 -0.26992187 3.09929687 -0.18359375 2.15234375 C-0.12300781 1.44207031 -0.06242188 0.73179687 0 0 Z " fill="#D0B5BC" transform="translate(212,205)"/>
<path d="M0 0 C0.02953391 3.91665027 0.04697503 7.83327113 0.0625 11.75 C0.07087891 12.84183594 0.07925781 13.93367188 0.08789062 15.05859375 C0.10968394 22.4247337 -0.2649241 29.67078775 -1 37 C-1.66 37 -2.32 37 -3 37 C-3 25.12 -3 13.24 -3 1 C-1 0 -1 0 0 0 Z " fill="#343434" transform="translate(192,366)"/>
<path d="M0 0 C0 0.66 0 1.32 0 2 C1.216875 2.12375 2.43375 2.2475 3.6875 2.375 C7.06479059 2.78891306 9.89756695 3.54573451 13 5 C12.67 5.66 12.34 6.32 12 7 C11.07380859 6.87431641 11.07380859 6.87431641 10.12890625 6.74609375 C2.45300745 5.82311657 -4.46389793 6.29829953 -12 8 C-12 7.34 -12 6.68 -12 6 C-10.35 5.67 -8.7 5.34 -7 5 C-7 4.34 -7 3.68 -7 3 C-4.4385343 0.70351351 -3.52032428 0 0 0 Z M-15 8 C-14.01 8.33 -13.02 8.66 -12 9 C-12.99 9.66 -13.98 10.32 -15 11 C-15.99 10.67 -16.98 10.34 -18 10 C-17.01 9.34 -16.02 8.68 -15 8 Z " fill="#424142" transform="translate(190,91)"/>
<path d="M0 0 C1.65 0 3.3 0 5 0 C6.125 6.625 6.125 6.625 5 10 C4.96079185 11.99961564 4.95556653 14.00049364 5 16 C3.02 16 1.04 16 -1 16 C-0.814375 14.989375 -0.62875 13.97875 -0.4375 12.9375 C-0.0019441 9.01749694 -0.39275516 5.87118584 -1 2 C-0.67 1.34 -0.34 0.68 0 0 Z " fill="#404040" transform="translate(185,325)"/>
<path d="M0 0 C1.4375 2.5 1.4375 2.5 2 5 C1.67 5.66 1.34 6.32 1 7 C-1.28515625 7.4140625 -1.28515625 7.4140625 -4.0625 7.625 C-4.98160156 7.69976562 -5.90070313 7.77453125 -6.84765625 7.8515625 C-7.91306641 7.92503906 -7.91306641 7.92503906 -9 8 C-9.97591583 4.61682513 -9.85856655 2.4342662 -9 -1 C-5.15510125 -2.28163292 -3.62830387 -1.69835501 0 0 Z " fill="#3E393B" transform="translate(194,176)"/>
<path d="M0 0 C1.98 0 3.96 0 6 0 C5.95875 1.216875 5.9175 2.43375 5.875 3.6875 C5.86245492 7.21894127 6.40001783 9.80003566 8 13 C6.02 13.33 4.04 13.66 2 14 C2.66 12.68 3.32 11.36 4 10 C2.35 10 0.7 10 -1 10 C-2.15837626 5.94568308 -1.83691257 3.78187881 0 0 Z " fill="#313131" transform="translate(186,266)"/>
<path d="M0 0 C0.33 0 0.66 0 1 0 C1.33 6.6 1.66 13.2 2 20 C2.33 18.35 2.66 16.7 3 15 C3.33 15 3.66 15 4 15 C4 23.58 4 32.16 4 41 C-3.38028908 31.15961456 -0.10696966 12.0085787 0 0 Z " fill="#FBA6B9" transform="translate(101,97)"/>
<path d="M0 0 C0.33 0 0.66 0 1 0 C1.09932276 4.44736742 1.17168003 8.89413713 1.21972656 13.34228516 C1.23976791 14.85346736 1.26700905 16.36457272 1.30175781 17.87548828 C1.35061109 20.05520643 1.37304224 22.23389431 1.390625 24.4140625 C1.4220459 26.37786865 1.4220459 26.37786865 1.45410156 28.38134766 C0.92811047 32.57287452 -0.36952744 34.73995339 -3 38 C-3.33 38 -3.66 38 -4 38 C-4 35.36 -4 32.72 -4 30 C-3.34 30 -2.68 30 -2 30 C-2 26.37 -2 22.74 -2 19 C-1.34 19 -0.68 19 0 19 C0 12.73 0 6.46 0 0 Z " fill="#565354" transform="translate(206,353)"/>
<path d="M0 0 C2.15619156 1.71842578 2.93931373 2.56251131 3.32470703 5.34082031 C3.30263184 6.24413086 3.28055664 7.14744141 3.2578125 8.078125 C3.24363281 9.07457031 3.22945313 10.07101563 3.21484375 11.09765625 C3.18519531 12.13792969 3.15554687 13.17820313 3.125 14.25 C2.98788619 20.66208713 3.08108632 26.6423127 4 33 C3.98488838 35.9900409 3.78473262 38.95651759 3.5625 41.9375 C3.51029297 42.71673828 3.45808594 43.49597656 3.40429688 44.29882812 C3.27601936 46.19966772 3.13892679 48.09990904 3 50 C2.67 50 2.34 50 2 50 C1.71306036 44.00441156 1.42829613 38.00872513 1.14550781 32.01293945 C1.04909423 29.97515096 0.95209632 27.93739002 0.85449219 25.8996582 C0.71394016 22.96312474 0.57552085 20.02649714 0.4375 17.08984375 C0.39375244 16.18540024 0.35000488 15.28095673 0.30493164 14.34910583 C0.08201925 9.55943288 -0.04569229 4.79483429 0 0 Z " fill="#EFC0CC" transform="translate(90,119)"/>
<path d="M0 0 C0 0.66 0 1.32 0 2 C-0.76957031 2.20496094 -1.53914062 2.40992188 -2.33203125 2.62109375 C-5.93103047 4.48119145 -6.33945435 6.30499069 -7.6875 10.0625 C-9.82254545 15.91127273 -9.82254545 15.91127273 -12 17 C-12.46907051 19.12998171 -12.46907051 19.12998171 -12.6328125 21.69140625 C-12.71660156 22.63564453 -12.80039063 23.57988281 -12.88671875 24.55273438 C-12.96535156 25.54595703 -13.04398438 26.53917969 -13.125 27.5625 C-13.21136719 28.55958984 -13.29773438 29.55667969 -13.38671875 30.58398438 C-13.59956793 33.05539988 -13.80359321 35.52723225 -14 38 C-16.17021343 34.74467986 -16.21788595 34.24655429 -15.86328125 30.578125 C-15.78013672 29.71703125 -15.69699219 28.8559375 -15.61132812 27.96875 C-15.51271484 27.0715625 -15.41410156 26.174375 -15.3125 25.25 C-15.23322266 24.36828125 -15.15394531 23.4865625 -15.07226562 22.578125 C-14.51390339 17.17928439 -13.54330201 12.81617697 -11 8 C-10.34 7.67 -9.68 7.34 -9 7 C-8.690625 6.195625 -8.38125 5.39125 -8.0625 4.5625 C-6.28831892 0.28359269 -4.50054563 0 0 0 Z " fill="#574E50" transform="translate(227,166)"/>
<path d="M0 0 C0.85722656 0.42152344 1.71445313 0.84304687 2.59765625 1.27734375 C4.31275391 2.09912109 4.31275391 2.09912109 6.0625 2.9375 C7.75052734 3.75541016 7.75052734 3.75541016 9.47265625 4.58984375 C13.04010413 6.01603277 16.19068005 6.61664169 20 7 C19.67 8.65 19.34 10.3 19 12 C18.01 12 17.02 12 16 12 C15.67 11.34 15.34 10.68 15 10 C13.824375 10.0928125 13.824375 10.0928125 12.625 10.1875 C11.325625 10.0946875 11.325625 10.0946875 10 10 C9.34 9.01 8.68 8.02 8 7 C6.0533929 5.78581167 6.0533929 5.78581167 3.875 4.8125 C3.15054688 4.46832031 2.42609375 4.12414062 1.6796875 3.76953125 C1.12539062 3.51558594 0.57109375 3.26164062 0 3 C0 2.01 0 1.02 0 0 Z " fill="#4F4A4C" transform="translate(208,99)"/>
<path d="M0 0 C0.99 0 1.98 0 3 0 C3.05811773 3.74993479 3.09363593 7.49975352 3.125 11.25 C3.14175781 12.31347656 3.15851563 13.37695312 3.17578125 14.47265625 C3.18222656 15.49746094 3.18867187 16.52226562 3.1953125 17.578125 C3.20578613 18.52075195 3.21625977 19.46337891 3.22705078 20.43457031 C2.99119213 23.09951941 2.35661659 24.71863092 1 27 C0.20293232 23.50007304 -0.11863027 20.2857769 -0.09765625 16.69921875 C-0.09443359 15.72275391 -0.09121094 14.74628906 -0.08789062 13.74023438 C-0.07951172 12.73283203 -0.07113281 11.72542969 -0.0625 10.6875 C-0.05798828 9.66076172 -0.05347656 8.63402344 -0.04882812 7.57617188 C-0.03708184 5.05072118 -0.02065565 2.52539095 0 0 Z " fill="#FEC3D1" transform="translate(121,116)"/>
<path d="M0 0 C2.64 0 5.28 0 8 0 C7.01 0.33 6.02 0.66 5 1 C5.309375 1.7734375 5.309375 1.7734375 5.625 2.5625 C6.15887026 6.03265671 5.07676761 8.70635791 4 12 C2.68 11.34 1.36 10.68 0 10 C-0.33 10.66 -0.66 11.32 -1 12 C-2.42857143 3.42857143 -2.42857143 3.42857143 0 0 Z " fill="#EBADBB" transform="translate(188,183)"/>
<path d="M0 0 C0.99 0.495 0.99 0.495 2 1 C2.33 11.89 2.66 22.78 3 34 C-0.36054957 29.51926724 -0.36133547 28.4250573 -0.29296875 23.046875 C-0.28872391 22.38665344 -0.28447906 21.72643188 -0.28010559 21.04620361 C-0.26337435 18.94704609 -0.22573551 16.84886504 -0.1875 14.75 C-0.17244584 13.32293058 -0.15875871 11.89584604 -0.14648438 10.46875 C-0.11349001 6.97885183 -0.06174743 3.4895213 0 0 Z " fill="#5B5255" transform="translate(172,352)"/>
<path d="M0 0 C0.99 0 1.98 0 3 0 C4.61128254 4.73906631 5.39328961 8.12348635 4 13 C3.01 13.495 3.01 13.495 2 14 C2.66 14.33 3.32 14.66 4 15 C4 15.99 4 16.98 4 18 C2.35 17.67 0.7 17.34 -1 17 C-0.74438677 14.6568787 -0.40729228 12.32156597 0 10 C0.66 9.67 1.32 9.34 2 9 C1.01 8.34 0.02 7.68 -1 7 C-1.25 3.9375 -1.25 3.9375 -1 1 C-0.67 0.67 -0.34 0.34 0 0 Z " fill="#4E4E4E" transform="translate(187,276)"/>
<path d="M0 0 C0.66 0 1.32 0 2 0 C4.74523357 6.61797379 5.86895853 12.83391339 5 20 C3.98046875 22.32421875 3.98046875 22.32421875 3 24 C2.67 24 2.34 24 2 24 C1.34 16.08 0.68 8.16 0 0 Z " fill="#6C6466" transform="translate(168,181)"/>
<path d="M0 0 C1.65 0.33 3.3 0.66 5 1 C5 4.3 5 7.6 5 11 C3.02 11 1.04 11 -1 11 C-1.0270043 9.54176788 -1.04639787 8.08339325 -1.0625 6.625 C-1.07410156 5.81289063 -1.08570313 5.00078125 -1.09765625 4.1640625 C-1 2 -1 2 0 0 Z " fill="#454545" transform="translate(185,342)"/>
<path d="M0 0 C2.64 0.33 5.28 0.66 8 1 C8.33 1.99 8.66 2.98 9 4 C8.484375 4.4125 7.96875 4.825 7.4375 5.25 C6.7259375 6.11625 6.7259375 6.11625 6 7 C6.29369827 8.34262065 6.6278958 9.67696283 7 11 C6.01 12.485 6.01 12.485 5 14 C4.34 14 3.68 14 3 14 C2 11 2 11 2.0625 7.5625 C2.00414029 4.23599651 1.75062779 2.73535592 0 0 Z " fill="#3D3A3B" transform="translate(185,211)"/>
<path d="M0 0 C2.62113708 0 4.50935112 0.31292445 7 1 C5.41037341 5.03520597 3.71767682 9.01811282 2 13 C1.01 12.67 0.02 12.34 -1 12 C-1.02687279 10.18757948 -1.04633715 8.37504767 -1.0625 6.5625 C-1.07410156 5.55316406 -1.08570313 4.54382813 -1.09765625 3.50390625 C-1 1 -1 1 0 0 Z " fill="#F48FA7" transform="translate(138,169)"/>
<path d="M0 0 C0.33 0 0.66 0 1 0 C1 8.58 1 17.16 1 26 C0.34 26 -0.32 26 -1 26 C-1.33 29.96 -1.66 33.92 -2 38 C-2.33 38 -2.66 38 -3 38 C-3 33.38 -3 28.76 -3 24 C-2.34 24 -1.68 24 -1 24 C-1.00523682 23.34402832 -1.01047363 22.68805664 -1.01586914 22.01220703 C-1.03661272 19.04981437 -1.04965176 16.08743697 -1.0625 13.125 C-1.07087891 12.09246094 -1.07925781 11.05992188 -1.08789062 9.99609375 C-1.09272461 8.51689453 -1.09272461 8.51689453 -1.09765625 7.0078125 C-1.10289307 6.09660645 -1.10812988 5.18540039 -1.11352539 4.24658203 C-1 2 -1 2 0 0 Z " fill="#3D1C23" transform="translate(227,110)"/>
<path d="M0 0 C0.33 0 0.66 0 1 0 C1 10.89 1 21.78 1 33 C0.34 33 -0.32 33 -1 33 C-1 31.35 -1 29.7 -1 28 C-1.66 28 -2.32 28 -3 28 C-3.6875 26.1875 -3.6875 26.1875 -4 24 C-3.52199951 23.56067139 -3.04399902 23.12134277 -2.55151367 22.66870117 C-0.49077979 20.45231784 -0.57894725 19.10525913 -0.48828125 16.11328125 C-0.43510742 14.7065918 -0.43510742 14.7065918 -0.38085938 13.27148438 C-0.35830078 12.29501953 -0.33574219 11.31855469 -0.3125 10.3125 C-0.27833984 9.32443359 -0.24417969 8.33636719 -0.20898438 7.31835938 C-0.12649462 4.87901947 -0.05734932 2.44003937 0 0 Z " fill="#353333" transform="translate(184,370)"/>
<path d="M0 0 C2.31 0 4.62 0 7 0 C7 3.77969755 6.80645848 4.91839436 5 8 C4 9 4 9 1.4375 9.0625 C0.633125 9.041875 -0.17125 9.02125 -1 9 C-0.67 6.03 -0.34 3.06 0 0 Z " fill="#363636" transform="translate(187,256)"/>
<path d="M0 0 C0.66 0 1.32 0 2 0 C2 9.9 2 19.8 2 30 C1.67 30 1.34 30 1 30 C1 24.72 1 19.44 1 14 C0.34 14 -0.32 14 -1 14 C-1.02694851 12.04174127 -1.04637218 10.08337774 -1.0625 8.125 C-1.07410156 7.03445312 -1.08570313 5.94390625 -1.09765625 4.8203125 C-1 2 -1 2 0 0 Z " fill="#61424A" transform="translate(226,136)"/>
<path d="M0 0 C1.98 0.495 1.98 0.495 4 1 C4.83214205 4.74463925 5 8.16128255 5 12 C3.02 12 1.04 12 -1 12 C-1.14285714 3.42857143 -1.14285714 3.42857143 0 0 Z " fill="#434343" transform="translate(187,236)"/>
<path d="M0 0 C1.65 0 3.3 0 5 0 C4.6803125 0.99257812 4.360625 1.98515625 4.03125 3.0078125 C2.53993337 8.21954402 2.55469688 13.47749469 2.34375 18.8671875 C2.2303125 19.90101562 2.116875 20.93484375 2 22 C1.34 22.33 0.68 22.66 0 23 C0 15.41 0 7.82 0 0 Z " fill="#F798AE" transform="translate(273,89)"/>
<path d="M0 0 C0.99 0.33 1.98 0.66 3 1 C3 4.96 3 8.92 3 13 C2.67 13 2.34 13 2 13 C1.67 15.31 1.34 17.62 1 20 C1.66 20 2.32 20 3 20 C3 20.99 3 21.98 3 23 C2.01 23 1.02 23 0 23 C-0.33 19.7 -0.66 16.4 -1 13 C-1.99 13.495 -1.99 13.495 -3 14 C-3.65555119 16.52733235 -3.65555119 16.52733235 -4 19 C-4.33 19 -4.66 19 -5 19 C-5.125 13.25 -5.125 13.25 -4 11 C-2.35 11 -0.7 11 1 11 C0.67 7.37 0.34 3.74 0 0 Z " fill="#343434" transform="translate(189,342)"/>
<path d="M0 0 C0.33 0 0.66 0 1 0 C0.67 7.26 0.34 14.52 0 22 C-3.30743588 18.69256412 -3.06006854 14.43158278 -3.1875 9.9375 C-3.00996696 6.20930606 -2.75909958 2.75909958 0 0 Z " fill="#3C3637" transform="translate(212,179)"/>
<path d="M0 0 C2 2 2 2 2.125 4.3125 C2.04166667 6.10416667 1.95833333 7.89583333 1.875 9.6875 C1.75251559 12.19778875 1.75251559 12.19778875 4 14 C5.60206987 17.73816303 4.41559886 20.33609706 3 24 C2.67 23.01 2.34 22.02 2 21 C1.34 21.99 0.68 22.98 0 24 C0 16.08 0 8.16 0 0 Z " fill="#2D2D2D" transform="translate(181,317)"/>
<path d="M0 0 C1.32 0.33 2.64 0.66 4 1 C3.34 6.94 2.68 12.88 2 19 C1.34 18.67 0.68 18.34 0 18 C0 12.06 0 6.12 0 0 Z " fill="#F89AAF" transform="translate(257,90)"/>
<path d="M0 0 C5.93892036 2.26244585 8.58337766 5.89929786 12 11 C10.02 11.99 10.02 11.99 8 13 C7.33333333 11 6.66666667 9 6 7 C5.01 7 4.02 7 3 7 C1.3125 5.75 1.3125 5.75 0 4 C0 2.68 0 1.36 0 0 Z " fill="#D78E9D" transform="translate(196,183)"/>
<path d="M0 0 C0.99 0.33 1.98 0.66 3 1 C2.67 11.89 2.34 22.78 2 34 C1.67 34 1.34 34 1 34 C0.67 22.78 0.34 11.56 0 0 Z " fill="#5C5658" transform="translate(209,220)"/>
<path d="M0 0 C2.10019634 2.26821205 2.98592863 3.4230737 3.0625 6.5625 C2 9 2 9 -0.875 10.8125 C-4 12 -4 12 -7 12 C-6.34 10.68 -5.68 9.36 -5 8 C-4.34 8 -3.68 8 -3 8 C-2.690625 6.865625 -2.38125 5.73125 -2.0625 4.5625 C-1 1 -1 1 0 0 Z " fill="#F2A9BB" transform="translate(245,92)"/>
<path d="M0 0 C2.97 0.33 5.94 0.66 9 1 C8.67 1.99 8.34 2.98 8 4 C8.66 4.33 9.32 4.66 10 5 C9.01 5.495 9.01 5.495 8 6 C8.185625 7.051875 8.37125 8.10375 8.5625 9.1875 C8.95079331 12.57119882 8.88247485 14.76425888 8 18 C7.34 18 6.68 18 6 18 C4.875 11.25 4.875 11.25 6 9 C6.04022391 6.6670134 6.04320247 4.33293334 6 2 C4.02 2.33 2.04 2.66 0 3 C0 2.01 0 1.02 0 0 Z " fill="#323232" transform="translate(184,323)"/>
<path d="M0 0 C0.66 0.33 1.32 0.66 2 1 C1.979375 2.093125 1.95875 3.18625 1.9375 4.3125 C1.81455548 7.94384191 1.81455548 7.94384191 3 11 C3.99 11.66 4.98 12.32 6 13 C6.33 13.99 6.66 14.98 7 16 C4.03 15.67 1.06 15.34 -2 15 C-1.855625 14.38125 -1.71125 13.7625 -1.5625 13.125 C-0.77943337 8.77462983 -0.40153341 4.39978093 0 0 Z " fill="#2F3030" transform="translate(186,214)"/>
<path d="M0 0 C0.99 1.32 1.98 2.64 3 4 C3.66 4 4.32 4 5 4 C5 6.97 5 9.94 5 13 C3.35 12.67 1.7 12.34 0 12 C0 8.04 0 4.08 0 0 Z " fill="#FDC2D1" transform="translate(111,115)"/>
<path d="M0 0 C0.33 0 0.66 0 1 0 C1 4.29 1 8.58 1 13 C-1.64458379 14.32229189 -3.67761301 14.09677194 -6.625 14.0625 C-7.62789062 14.05347656 -8.63078125 14.04445313 -9.6640625 14.03515625 C-10.43492187 14.02355469 -11.20578125 14.01195312 -12 14 C-9.80202597 11.80202597 -8.82453855 11.54102483 -5.875 10.875 C-4.59625 10.58625 -3.3175 10.2975 -2 10 C-1.34 6.7 -0.68 3.4 0 0 Z " fill="#40393A" transform="translate(198,398)"/>
<path d="M0 0 C0.99 0 1.98 0 3 0 C3 4.95 3 9.9 3 15 C2.01 14.34 1.02 13.68 0 13 C-0.29296875 9.9609375 -0.29296875 9.9609375 -0.1875 6.375 C-0.16042969 5.18648438 -0.13335937 3.99796875 -0.10546875 2.7734375 C-0.07066406 1.85820312 -0.03585938 0.94296875 0 0 Z " fill="#515151" transform="translate(186,367)"/>
<path d="M0 0 C2.64 0 5.28 0 8 0 C7.67 1.65 7.34 3.3 7 5 C7.99 5.33 8.98 5.66 10 6 C7.03 6 4.06 6 1 6 C0.67 4.02 0.34 2.04 0 0 Z " fill="#414141" transform="translate(185,249)"/>
<path d="M0 0 C0.66 0.33 1.32 0.66 2 1 C2 1.99 2 2.98 2 4 C3.43750191 5.68798827 3.43750191 5.68798827 5 7 C4.01 7 3.02 7 2 7 C2 8.65 2 10.3 2 12 C1.01 12 0.02 12 -1 12 C-1.02687279 10.18757948 -1.04633715 8.37504767 -1.0625 6.5625 C-1.07410156 5.55316406 -1.08570313 4.54382813 -1.09765625 3.50390625 C-1 1 -1 1 0 0 Z " fill="#353535" transform="translate(185,279)"/>
<path d="M0 0 C1.98 0 3.96 0 6 0 C6 2.97 6 5.94 6 9 C4.35 8.67 2.7 8.34 1 8 C0.67 5.36 0.34 2.72 0 0 Z " fill="#434343" transform="translate(186,266)"/>
<path d="M0 0 C0.66 0 1.32 0 2 0 C2.33 0.99 2.66 1.98 3 3 C2.67 3.66 2.34 4.32 2 5 C1.960008 6.99960012 1.95653201 9.00047242 2 11 C0.68 11 -0.64 11 -2 11 C-1.835 9.906875 -1.67 8.81375 -1.5 7.6875 C-0.93281816 4.12474127 -0.93281816 4.12474127 -1 1 C-0.67 0.67 -0.34 0.34 0 0 Z " fill="#525252" transform="translate(188,330)"/>
<path d="M0 0 C0 0.66 0 1.32 0 2 C-0.76699219 2.20367187 -1.53398437 2.40734375 -2.32421875 2.6171875 C-5.93991313 4.48573613 -6.41248519 6.36496024 -7.8125 10.125 C-8.23144531 11.22070312 -8.65039062 12.31640625 -9.08203125 13.4453125 C-9.38496094 14.28835937 -9.68789062 15.13140625 -10 16 C-10.33 16 -10.66 16 -11 16 C-11 13.36 -11 10.72 -11 8 C-10.34 7.67 -9.68 7.34 -9 7 C-8.690625 6.195625 -8.38125 5.39125 -8.0625 4.5625 C-6.28831892 0.28359269 -4.50054563 0 0 0 Z " fill="#8A7E83" transform="translate(227,166)"/>
<path d="M0 0 C-0.33 1.65 -0.66 3.3 -1 5 C-3.31 5.66 -5.62 6.32 -8 7 C-7.67 5.02 -7.34 3.04 -7 1 C-2.25 0 -2.25 0 0 0 Z " fill="#6F5D62" transform="translate(165,101)"/>
<path d="M0 0 C1.65 0 3.3 0 5 0 C5 2.64 5 5.28 5 8 C3.68 8 2.36 8 1 8 C0.01 6.02 -0.98 4.04 -2 2 C-1.34 2 -0.68 2 0 2 C0 1.34 0 0.68 0 0 Z " fill="#555555" transform="translate(187,305)"/>
<path d="M0 0 C0.33 0 0.66 0 1 0 C1.27711526 2.22595848 1.52066929 4.45611221 1.75 6.6875 C1.88921875 7.92886719 2.0284375 9.17023438 2.171875 10.44921875 C1.96890005 14.64249675 0.8982633 16.06241918 -2 19 C-2 16.36 -2 13.72 -2 11 C-1.34 11 -0.68 11 0 11 C0 7.37 0 3.74 0 0 Z " fill="#474042" transform="translate(204,372)"/>
<path d="M0 0 C0.99 0.33 1.98 0.66 3 1 C1.68 1.33 0.36 1.66 -1 2 C-1 3.65 -1 5.3 -1 7 C-2.65 7.66 -4.3 8.32 -6 9 C-6.33 8.01 -6.66 7.02 -7 6 C-2.25 1.125 -2.25 1.125 0 0 Z " fill="#21191A" transform="translate(183,212)"/>
<path d="M0 0 C0.99 0 1.98 0 3 0 C2.34 4.29 1.68 8.58 1 13 C0.34 13 -0.32 13 -1 13 C-1.02686553 11.02090602 -1.04633375 9.04171029 -1.0625 7.0625 C-1.07410156 5.96035156 -1.08570312 4.85820313 -1.09765625 3.72265625 C-1 1 -1 1 0 0 Z " fill="#F896AB" transform="translate(104,89)"/>
<path d="M0 0 C1.32 0.33 2.64 0.66 4 1 C3.34 1.66 2.68 2.32 2 3 C2.36707617 4.88719655 2.36707617 4.88719655 3 7 C3.03786901 8.66623639 3.04627845 10.33397597 3 12 C2.34 12 1.68 12 1 12 C0.67 12.99 0.34 13.98 0 15 C0 10.05 0 5.1 0 0 Z " fill="#F89DB1" transform="translate(119,88)"/>
<path d="M0 0 C1.670625 0.061875 1.670625 0.061875 3.375 0.125 C2.715 1.445 2.055 2.765 1.375 4.125 C1.375 3.465 1.375 2.805 1.375 2.125 C-0.275 2.455 -1.925 2.785 -3.625 3.125 C-4.285 5.105 -4.945 7.085 -5.625 9.125 C-6.285 8.795 -6.945 8.465 -7.625 8.125 C-5.20681818 0.17954545 -5.20681818 0.17954545 0 0 Z " fill="#F0BACA" transform="translate(252.625,83.875)"/>
<path d="M0 0 C0.08114106 1.77007714 0.13925505 3.54122098 0.1875 5.3125 C0.23970703 6.79169922 0.23970703 6.79169922 0.29296875 8.30078125 C0 11 0 11 -3 14 C-3 9.71 -3 5.42 -3 1 C-1 0 -1 0 0 0 Z " fill="#2D2D2D" transform="translate(192,366)"/>
<path d="M0 0 C0.66 0 1.32 0 2 0 C2 0.66 2 1.32 2 2 C2.66 2 3.32 2 4 2 C4 2.66 4 3.32 4 4 C5.32 4.66 6.64 5.32 8 6 C8 6.33 8 6.66 8 7 C5.03 6.67 2.06 6.34 -1 6 C-0.67 4.02 -0.34 2.04 0 0 Z " fill="#5C5052" transform="translate(187,176)"/>
<path d="M0 0 C1.65 0 3.3 0 5 0 C2.03 4.95 2.03 4.95 -1 10 C-1.66 9.34 -2.32 8.68 -3 8 C-2.64700993 4.55834679 -1.95418308 2.93127462 0 0 Z " fill="#38282B" transform="translate(175,188)"/>
<path d="M0 0 C0.66 0 1.32 0 2 0 C2 3.63 2 7.26 2 11 C1.01 11 0.02 11 -1 11 C-1.02688151 9.35425434 -1.04634123 7.70838587 -1.0625 6.0625 C-1.07410156 5.14597656 -1.08570313 4.22945312 -1.09765625 3.28515625 C-1 1 -1 1 0 0 Z " fill="#57494E" transform="translate(158,135)"/>
<path d="M0 0 C0.33 0 0.66 0 1 0 C1.97758625 5.45275886 1.97344509 10.42516763 1.5625 15.9375 C1.48418945 17.10635742 1.48418945 17.10635742 1.40429688 18.29882812 C1.27601936 20.19966772 1.13892679 22.09990904 1 24 C0.67 24 0.34 24 0 24 C-0.19738568 20.75052139 -0.3811754 17.50041127 -0.5625 14.25 C-0.61857422 13.32960937 -0.67464844 12.40921875 -0.73242188 11.4609375 C-0.78076172 10.57148438 -0.82910156 9.68203125 -0.87890625 8.765625 C-0.9260376 7.94868164 -0.97316895 7.13173828 -1.02172852 6.29003906 C-1.00020095 4.02117925 -0.64612135 2.16679079 0 0 Z " fill="#F6C7D2" transform="translate(92,145)"/>
<path d="M0 0 C0.8971875 0.309375 0.8971875 0.309375 1.8125 0.625 C-3.47980769 5.54807692 -3.47980769 5.54807692 -7.0625 5.9375 C-8.114375 5.7828125 -8.114375 5.7828125 -9.1875 5.625 C-3.21691176 -0.55147059 -3.21691176 -0.55147059 0 0 Z " fill="#2E2E2E" transform="translate(176.1875,103.375)"/>
<path d="M0 0 C2.64 0.33 5.28 0.66 8 1 C8 1.66 8 2.32 8 3 C9.32 3.66 10.64 4.32 12 5 C11.67 5.99 11.34 6.98 11 8 C10.319375 7.38125 9.63875 6.7625 8.9375 6.125 C5.54118766 3.6680932 3.03981179 2.95054395 -1 2 C-0.67 1.34 -0.34 0.68 0 0 Z " fill="#F0B0BF" transform="translate(229,166)"/>
<path d="M0 0 C3 3.75 3 3.75 3 6 C7.32564205 7.58255197 11.428721 8.45144652 16 9 C16 9.33 16 9.66 16 10 C5.79899497 10.1758794 5.79899497 10.1758794 2 9 C0.06279854 5.74197937 0 3.84955327 0 0 Z " fill="#F4BBC9" transform="translate(141,93)"/>
<path d="M0 0 C1.44096586 0.42594588 2.87768712 0.86626633 4.3125 1.3125 C5.11300781 1.55613281 5.91351563 1.79976563 6.73828125 2.05078125 C9.09964573 3.04182023 10.33879993 4.08074943 12 6 C11.01 6.495 11.01 6.495 10 7 C7.6171875 6.00390625 7.6171875 6.00390625 4.875 4.5625 C3.96492187 4.08941406 3.05484375 3.61632812 2.1171875 3.12890625 C1.41851562 2.75636719 0.71984375 2.38382812 0 2 C0 1.34 0 0.68 0 0 Z " fill="#8F8388" transform="translate(205,94)"/>
<path d="M0 0 C0.33 0.99 0.66 1.98 1 3 C3.01508358 3.73323796 3.01508358 3.73323796 5 4 C4.01 4 3.02 4 2 4 C2.020625 5.27875 2.04125 6.5575 2.0625 7.875 C2.125 11.75 2.125 11.75 1 14 C0.34 13.67 -0.32 13.34 -1 13 C-1.02708567 11.39592672 -1.04643483 9.7917215 -1.0625 8.1875 C-1.07410156 7.29417969 -1.08570313 6.40085937 -1.09765625 5.48046875 C-1 3 -1 3 0 0 Z " fill="#323232" transform="translate(185,252)"/>
<path d="M0 0 C2.31 0 4.62 0 7 0 C7.66 1.32 8.32 2.64 9 4 C7.02 4.99 7.02 4.99 5 6 C3.31237149 4.3545622 1.6459651 2.68711423 0 1 C0 0.67 0 0.34 0 0 Z " fill="#1B1B1B" transform="translate(189,225)"/>
<path d="M0 0 C1.09658936 3.28976808 0.79953138 4.71303767 0 8 C-0.99 8.33 -1.98 8.66 -3 9 C-3.66 7.68 -4.32 6.36 -5 5 C-3.35 3.35 -1.7 1.7 0 0 Z " fill="#DC8E9E" transform="translate(184,184)"/>
<path d="M0 0 C0.33 0 0.66 0 1 0 C1.02698189 1.62490954 1.04638757 3.24994633 1.0625 4.875 C1.07410156 5.77992188 1.08570313 6.68484375 1.09765625 7.6171875 C1 10 1 10 0 12 C-0.22622081 13.70363822 -0.40888473 15.41328701 -0.5625 17.125 C-0.68818359 18.49011719 -0.68818359 18.49011719 -0.81640625 19.8828125 C-0.87699219 20.58148438 -0.93757812 21.28015625 -1 22 C-1.33 22 -1.66 22 -2 22 C-2 17.38 -2 12.76 -2 8 C-1.34 8 -0.68 8 0 8 C0 5.36 0 2.72 0 0 Z " fill="#362F32" transform="translate(226,126)"/>
<path d="M0 0 C0.66 0 1.32 0 2 0 C2.33 2.97 2.66 5.94 3 9 C1.35 8.67 -0.3 8.34 -2 8 C-1.125 1.125 -1.125 1.125 0 0 Z " fill="#525252" transform="translate(188,295)"/>
<path d="M0 0 C0.99 0 1.98 0 3 0 C3 0.66 3 1.32 3 2 C5.64 2.33 8.28 2.66 11 3 C11 3.33 11 3.66 11 4 C6.05 4 1.1 4 -4 4 C-2.68 2.68 -1.36 1.36 0 0 Z " fill="#585255" transform="translate(187,91)"/>
<path d="M0 0 C0.66 0 1.32 0 2 0 C2.33 4.29 2.66 8.58 3 13 C-0.375 8.5 -0.375 8.5 -0.1875 4.25 C-0.16042969 3.45078125 -0.13335937 2.6515625 -0.10546875 1.828125 C-0.07066406 1.22484375 -0.03585938 0.6215625 0 0 Z " fill="#887C80" transform="translate(172,373)"/>
<path d="M0 0 C0.33 0.66 0.66 1.32 1 2 C1.66 2 2.32 2 3 2 C1.25 7.75 1.25 7.75 -1 10 C-1 9.01 -1 8.02 -1 7 C-1.99 6.67 -2.98 6.34 -4 6 C-3.67 5.34 -3.34 4.68 -3 4 C-2.34 4.33 -1.68 4.66 -1 5 C-0.67 3.35 -0.34 1.7 0 0 Z " fill="#343434" transform="translate(192,284)"/>
<path d="M0 0 C4.12751449 0.60698743 7.3321148 2.03810791 11 4 C11 4.33 11 4.66 11 5 C6.37390802 5.3227506 3.71973879 4.84450614 0 2 C0 1.34 0 0.68 0 0 Z " fill="#9F9295" transform="translate(217,100)"/>
<path d="M0 0 C0.99 0.33 1.98 0.66 3 1 C2.67 1.66 2.34 2.32 2 3 C3.05270463 4.15811388 3.05270463 4.15811388 5 5 C4.67 5.99 4.34 6.98 4 8 C2.35 8 0.7 8 -1 8 C-0.67 5.36 -0.34 2.72 0 0 Z " fill="#4C4C4C" transform="translate(187,257)"/>
<path d="M0 0 C0.99 0 1.98 0 3 0 C6.07692308 5.29230769 6.07692308 5.29230769 5.6875 8.875 C5.460625 9.57625 5.23375 10.2775 5 11 C2.4345406 8.4345406 2.45953913 6.52313332 2 3 C1.34 3 0.68 3 0 3 C0 2.01 0 1.02 0 0 Z " fill="#3E3B3C" transform="translate(168,178)"/>
<path d="M0 0 C1.58294782 -0.05437607 3.16644256 -0.09296271 4.75 -0.125 C5.63171875 -0.14820312 6.5134375 -0.17140625 7.421875 -0.1953125 C10.1135858 0.00860498 11.69904974 0.63448279 14 2 C13.67 2.33 13.34 2.66 13 3 C11.07421875 2.94921875 11.07421875 2.94921875 8.6875 2.6875 C7.51767578 2.56955078 7.51767578 2.56955078 6.32421875 2.44921875 C3.91792729 1.98413721 2.12866168 1.19341444 0 0 Z " fill="#7F767B" transform="translate(190,92)"/>
<path d="M0 0 C0.66 0 1.32 0 2 0 C2.33 2.97 2.66 5.94 3 9 C2.01 9 1.02 9 0 9 C0 6.03 0 3.06 0 0 Z " fill="#4A4A4A" transform="translate(186,356)"/>
<path d="M0 0 C0.99 0 1.98 0 3 0 C3.66 2.31 4.32 4.62 5 7 C4.01 7.495 4.01 7.495 3 8 C0.9375 6.25 0.9375 6.25 -1 4 C-0.75 1.75 -0.75 1.75 0 0 Z " fill="#444444" transform="translate(187,276)"/>
<path d="M0 0 C1.32 0 2.64 0 4 0 C3.67 1.98 3.34 3.96 3 6 C2.01 6.33 1.02 6.66 0 7 C0 4.69 0 2.38 0 0 Z " fill="#F4C1CD" transform="translate(188,186)"/>
<path d="M0 0 C0.99 0.495 0.99 0.495 2 1 C2.4140625 4.0546875 2.4140625 4.0546875 2.625 7.875 C2.69976562 9.13054687 2.77453125 10.38609375 2.8515625 11.6796875 C2.94567952 13.78493654 3 15.89264822 3 18 C2.34 17.67 1.68 17.34 1 17 C0.67 11.39 0.34 5.78 0 0 Z " fill="#F69EB2" transform="translate(135,166)"/>
<path d="M0 0 C0.66 0.33 1.32 0.66 2 1 C2 3.97 2 6.94 2 10 C1.01 9.67 0.02 9.34 -1 9 C-1.09765625 2.84765625 -1.09765625 2.84765625 -1 1 C-0.67 0.67 -0.34 0.34 0 0 Z " fill="#616161" transform="translate(187,343)"/>
<path d="M0 0 C1.10348268 3.31044803 0.99444068 5.65506316 0 9 C-0.99 9.495 -0.99 9.495 -2 10 C-2.1953125 3.9453125 -2.1953125 3.9453125 -2 2 C-1.34 1.34 -0.68 0.68 0 0 Z " fill="#2F2B2C" transform="translate(184,176)"/>
<path d="M0 0 C0.66 0 1.32 0 2 0 C1 3 1 3 -1 4 C-3.6723621 4.13415472 -6.32250488 4.04318541 -9 4 C-9.33 3.34 -9.66 2.68 -10 2 C-8.72125 2.04125 -7.4425 2.0825 -6.125 2.125 C-3.98128508 2.24212873 -3.98128508 2.24212873 -2 2 C-1.34 1.34 -0.68 0.68 0 0 Z " fill="#EFBDCA" transform="translate(288,183)"/>
<path d="M0 0 C1.04449911 3.13349732 0.93423645 3.98968256 0 7 C-0.66 7 -1.32 7 -2 7 C-2 8.98 -2 10.96 -2 13 C-2.33 13 -2.66 13 -3 13 C-3.17791204 8.46324303 -3.0461125 5.092225 -1 1 C-0.67 0.67 -0.34 0.34 0 0 Z " fill="#303030" transform="translate(212,179)"/>
<path d="M0 0 C0.99 0 1.98 0 3 0 C1.7508258 3.45925163 0.32472205 6.14693203 -2 9 C-2.25 3.375 -2.25 3.375 0 0 Z " fill="#EA9DAE" transform="translate(142,170)"/>
<path d="M0 0 C0.99 0.33 1.98 0.66 3 1 C3.33 1.99 3.66 2.98 4 4 C1.69 4.66 -0.62 5.32 -3 6 C-3 5.01 -3 4.02 -3 3 C-2.01 3 -1.02 3 0 3 C0 2.01 0 1.02 0 0 Z " fill="#4B4547" transform="translate(223,162)"/>
<path d="M0 0 C1.0725 0.2475 2.145 0.495 3.25 0.75 C2.4765625 0.935625 2.4765625 0.935625 1.6875 1.125 C-1.47702351 1.93641628 -4.61124985 2.8445913 -7.75 3.75 C-5.15187156 0.32047046 -4.43092205 -0.2953948 0 0 Z " fill="#F0C0CC" transform="translate(284.75,84.25)"/>
<path d="M0 0 C0.99 0.33 1.98 0.66 3 1 C3 4.63 3 8.26 3 12 C2.67 12 2.34 12 2 12 C2 9.03 2 6.06 2 3 C1.01 3.33 0.02 3.66 -1 4 C-0.67 2.68 -0.34 1.36 0 0 Z " fill="#363133" transform="translate(158,132)"/>
<path d="M0 0 C1.32 1.32 2.64 2.64 4 4 C3.67 4.99 3.34 5.98 3 7 C2.34 7 1.68 7 1 7 C-0.0625 4.625 -0.0625 4.625 -1 2 C-0.67 1.34 -0.34 0.68 0 0 Z " fill="#3A2E31" transform="translate(206,216)"/>
<path d="M0 0 C3.3 0.33 6.6 0.66 10 1 C9.34 1.66 8.68 2.32 8 3 C4.4375 2.75 4.4375 2.75 1 2 C0.67 1.34 0.34 0.68 0 0 Z " fill="#F0BDCE" transform="translate(247,185)"/>
<path d="M0 0 C3.2542015 2.83430453 4.5206753 4.68607774 5 9 C4.01 8.67 3.02 8.34 2 8 C0.5522078 5.10441559 0 3.25811062 0 0 Z " fill="#ECABBC" transform="translate(243,176)"/>
<path d="M0 0 C1.32 0 2.64 0 4 0 C3.67 2.31 3.34 4.62 3 7 C2.34 7 1.68 7 1 7 C0.67 4.69 0.34 2.38 0 0 Z " fill="#383838" transform="translate(189,334)"/>
<path d="M0 0 C0.66 0 1.32 0 2 0 C2 2.64 2 5.28 2 8 C1.01 7.67 0.02 7.34 -1 7 C-1.04254356 5.00045254 -1.04080783 2.99958364 -1 1 C-0.67 0.67 -0.34 0.34 0 0 Z " fill="#434343" transform="translate(190,305)"/>
<path d="M0 0 C1.65 0 3.3 0 5 0 C5.33 1.32 5.66 2.64 6 4 C3.03 3.505 3.03 3.505 0 3 C0 2.01 0 1.02 0 0 Z " fill="#272727" transform="translate(187,226)"/>
<path d="M0 0 C1.175625 0.5259375 1.175625 0.5259375 2.375 1.0625 C3.674375 1.5265625 3.674375 1.5265625 5 2 C5.66 1.67 6.32 1.34 7 1 C6.67 2.65 6.34 4.3 6 6 C3.97945196 4.35830472 1.97956942 2.69088222 0 1 C0 0.67 0 0.34 0 0 Z " fill="#D8ADB9" transform="translate(205,214)"/>
<path d="M0 0 C1.42944945 2.35438733 2.08661261 3.48032433 1.625 6.25 C1.41875 6.8275 1.2125 7.405 1 8 C-0.98 4.535 -0.98 4.535 -3 1 C-2.01 0.67 -1.02 0.34 0 0 Z " fill="#362226" transform="translate(208,189)"/>
</svg>
